<svg xmlns="http://www.w3.org/2000/svg" width="18" height="18" viewBox="0 0 18 18">
  <path fill="#015" fill-rule="evenodd" d="M9,4 C13.9638462,4 18,8.03615385 18,13 C18,17.9638462 13.9638462,22 9,22 C4.03615385,22 0,17.9638462 0,13 C0,8.03615385 4.03615385,4 9,4 Z M7.81615385,16.2607692 L5.04692308,13.4915385 C4.77692308,13.2215385 4.77692308,12.7853846 5.04692308,12.5153846 C5.31692308,12.2453846 5.75307692,12.2453846 6.02307692,12.5153846 L8.14153846,14.6338462 L11.16,9.20615385 C11.3469231,8.87384615 11.7692308,8.74923077 12.1015385,8.93615385 C12.4338462,9.12307692 12.5584615,9.54538462 12.3715385,9.87769231 L8.91,16.1084615 C8.79230769,16.3161538 8.57076923,16.4615385 8.30769231,16.4615385 C8.12769231,16.4615385 7.94769231,16.3923077 7.81615385,16.2607692 L7.81615385,16.2607692 Z" transform="translate(0 -4)"/>
</svg>
