<svg xmlns="http://www.w3.org/2000/svg" width="160" height="48" viewBox="0 0 160 48">
  <g fill="none" fill-rule="evenodd">
    <path fill="#000" fill-rule="nonzero" d="M154.582397,48 L4.61342026,47.9252594 C2.0669661,47.9252594 0,45.7753459 0,43.1211937 L0,4.81033736 C0,2.15743944 2.0669661,0 4.61342026,0 L155.391387,0 C157.940244,0 159.998798,2.15743944 159.998798,4.81033736 L160,43.1211937 C160,45.7753459 157.130053,48 154.582397,48 Z"/>
    <g fill="#FFF" fill-rule="nonzero" transform="translate(23.143 9.143)">
      <path d="M18.6344 14.7732C18.60395 11.38905 21.40535 9.74265 21.53345 9.666 19.9469 7.35285 17.4878 7.0368 16.62365 7.0116 14.5583 6.79425 12.5549 8.24745 11.5028 8.24745 10.4297 8.24745 8.80955 7.0326 7.0634 7.0683 4.8164 7.10295 2.7143 8.4039 1.5614 10.4241-.8179 14.54325.9566 20.5965 3.23615 23.92605 4.37645 25.5567 5.7089 27.3774 7.45295 27.31335 9.1592 27.243 9.79655 26.22555 11.8556 26.22555 13.89575 26.22555 14.49425 27.31335 16.27295 27.2724 18.10415 27.243 19.25705 25.6344 20.35745 23.98905 21.6752 22.12005 22.2044 20.2794 22.2254 20.1849 22.18235 20.1702 18.66905 18.82935 18.6344 14.7732zM15.2744 4.8213C16.1921 3.67365 16.82 2.1123 16.6457.52785 15.31745.58665 13.65635 1.4466 12.6998 2.56905 11.8535 3.55815 11.0975 5.17935 11.2928 6.70395 12.78485 6.81525 14.3168 5.9511 15.2744 4.8213zM43.32725 27.0792L40.9427 27.0792 39.6365 22.97475 35.0963 22.97475 33.85205 27.0792 31.5305 27.0792 36.0287 13.1058 38.807 13.1058 43.32725 27.0792zM39.24275 21.25275L38.0615 17.604C37.93655 17.23125 37.7024 16.35345 37.35695 14.97165L37.31495 14.97165C37.1774 15.56595 36.95585 16.44375 36.65135 17.604L35.4911 21.25275 39.24275 21.25275zM54.8951 21.9174C54.8951 23.631 54.43205 24.9855 53.50595 25.97985 52.67645 26.865 51.6464 27.30705 50.41685 27.30705 49.08965 27.30705 48.13625 26.83035 47.5556 25.87695L47.5136 25.87695 47.5136 31.1847 45.275 31.1847 45.275 20.32035C45.275 19.24305 45.24665 18.1374 45.19205 17.0034L47.1608 17.0034 47.28575 18.60045 47.32775 18.60045C48.0743 17.39715 49.20725 16.79655 50.72765 16.79655 51.91625 16.79655 52.9085 17.2659 53.7023 18.20565 54.4982 19.14645 54.8951 20.38335 54.8951 21.9174zM52.6145 21.9993C52.6145 21.0186 52.394 20.2101 51.9509 19.5738 51.46685 18.9102 50.8169 18.5784 50.0021 18.5784 49.4498 18.5784 48.9479 18.7632 48.49955 19.12755 48.05015 19.49505 47.75615 19.9749 47.6186 20.5692 47.5493 20.8464 47.51465 21.0732 47.51465 21.2517L47.51465 22.9317C47.51465 23.6646 47.73935 24.28305 48.18875 24.7881 48.63815 25.29315 49.22195 25.54515 49.94015 25.54515 50.7833 25.54515 51.43955 25.21965 51.9089 24.57075 52.3793 23.9208 52.6145 23.064 52.6145 21.9993zM66.48395 21.9174C66.48395 23.631 66.0209 24.9855 65.09375 25.97985 64.2653 26.865 63.23525 27.30705 62.0057 27.30705 60.6785 27.30705 59.7251 26.83035 59.1455 25.87695L59.1035 25.87695 59.1035 31.1847 56.8649 31.1847 56.8649 20.32035C56.8649 19.24305 56.83655 18.1374 56.78195 17.0034L58.7507 17.0034 58.87565 18.60045 58.91765 18.60045C59.66315 17.39715 60.7961 16.79655 62.31755 16.79655 63.5051 16.79655 64.49735 17.2659 65.29325 18.20565 66.086 19.14645 66.48395 20.38335 66.48395 21.9174zM64.20335 21.9993C64.20335 21.0186 63.9818 20.2101 63.5387 19.5738 63.05465 18.9102 62.4068 18.5784 61.59095 18.5784 61.0376 18.5784 60.53675 18.7632 60.08735 19.12755 59.63795 19.49505 59.345 19.9749 59.20745 20.5692 59.1392 20.8464 59.1035 21.0732 59.1035 21.2517L59.1035 22.9317C59.1035 23.6646 59.3282 24.28305 59.7755 24.7881 60.2249 25.2921 60.8087 25.54515 61.529 25.54515 62.37215 25.54515 63.0284 25.21965 63.49775 24.57075 63.96815 23.9208 64.20335 23.064 64.20335 21.9993zM79.44095 23.1606C79.44095 24.3492 79.0283 25.31625 78.19985 26.0628 77.2895 26.87865 76.02215 27.28605 74.3936 27.28605 72.89 27.28605 71.6846 26.99625 70.77215 26.4156L71.29085 24.54975C72.27365 25.14405 73.352 25.44225 74.52695 25.44225 75.3701 25.44225 76.02635 25.25115 76.4978 24.87105 76.96715 24.49095 77.2013 23.98065 77.2013 23.34435 77.2013 22.77735 77.0081 22.2996 76.62065 21.91215 76.2353 21.5247 75.59165 21.16455 74.69285 20.8317 72.24635 19.91925 71.02415 18.5826 71.02415 16.8249 71.02415 15.6762 71.45255 14.73435 72.3104 14.00145 73.1651 13.2675 74.3054 12.90105 75.7313 12.90105 77.00285 12.90105 78.05915 13.1226 78.9023 13.56465L78.34265 15.38955C77.55515 14.96115 76.66475 14.74695 75.6683 14.74695 74.8808 14.74695 74.2655 14.9412 73.8245 15.3276 73.45175 15.67305 73.26485 16.0941 73.26485 16.59285 73.26485 17.14515 73.478 17.6019 73.9064 17.961 74.27915 18.2928 74.9564 18.6519 75.9392 19.03935 77.14145 19.5234 78.0245 20.08935 78.59255 20.73825 79.1585 21.38505 79.44095 22.1946 79.44095 23.1606zM86.8424 18.6834L84.3749 18.6834 84.3749 23.57535C84.3749 24.8196 84.8096 25.4412 85.6811 25.4412 86.08115 25.4412 86.41295 25.40655 86.67545 25.33725L86.7374 27.0372C86.2964 27.20205 85.71575 27.285 84.9965 27.285 84.1124 27.285 83.4215 27.01515 82.92275 26.4765 82.4261 25.9368 82.1762 25.0317 82.1762 23.76015L82.1762 18.6813 80.7062 18.6813 80.7062 17.0013 82.1762 17.0013 82.1762 15.15645 84.3749 14.49285 84.3749 17.0013 86.8424 17.0013 86.8424 18.6834zM97.97555 21.95835C97.97555 23.5071 97.53245 24.77865 96.64835 25.773 95.7212 26.79675 94.4906 27.30705 92.95655 27.30705 91.47815 27.30705 90.3011 26.8167 89.4233 25.836 88.5455 24.8553 88.1066 23.61735 88.1066 22.1253 88.1066 20.56395 88.5581 19.28505 89.46425 18.2907 90.3683 17.2953 91.5884 16.7976 93.12245 16.7976 94.60085 16.7976 95.7905 17.28795 96.68825 18.2697 97.54715 19.22205 97.97555 20.4516 97.97555 21.95835zM95.65295 22.0308C95.65295 21.10155 95.4545 20.3046 95.05235 19.63995 94.583 18.83565 93.91205 18.43455 93.04265 18.43455 92.1428 18.43455 91.45925 18.8367 90.9899 19.63995 90.58775 20.30565 90.3893 21.1152 90.3893 22.0728 90.3893 23.00205 90.58775 23.799 90.9899 24.4626 91.47395 25.2669 92.15015 25.668 93.0227 25.668 93.8774 25.668 94.54835 25.2585 95.0324 24.4416 95.44505 23.76435 95.65295 22.959 95.65295 22.0308zM105.25205 18.97215C105.0305 18.9312 104.79425 18.9102 104.54645 18.9102 103.75895 18.9102 103.14995 19.20735 102.72155 19.8027 102.3488 20.3277 102.1619 20.9913 102.1619 21.79245L102.1619 27.0792 99.92435 27.0792 99.94535 20.1765C99.94535 19.0152 99.917 17.95785 99.86135 17.00445L101.8112 17.00445 101.8931 18.93225 101.95505 18.93225C102.1913 18.2697 102.56405 17.7363 103.07435 17.33625 103.5731 16.9761 104.11175 16.79655 104.6924 16.79655 104.89925 16.79655 105.08615 16.81125 105.25205 16.8375L105.25205 18.97215zM115.2638 21.5646C115.2638 21.9657 115.23755 22.3038 115.1819 22.57995L108.4661 22.57995C108.49235 23.57535 108.8168 24.3366 109.4405 24.8616 110.00645 25.33095 110.7383 25.56615 111.6371 25.56615 112.63145 25.56615 113.53865 25.4076 114.3545 25.08945L114.7052 26.64345C113.7518 27.05925 112.6262 27.2661 111.32735 27.2661 109.76495 27.2661 108.53855 26.8062 107.64605 25.88745 106.75565 24.9687 106.3094 23.73495 106.3094 22.18725 106.3094 20.6679 106.72415 19.40265 107.5547 18.3936 108.4241 17.3163 109.59905 16.77765 111.07745 16.77765 112.5296 16.77765 113.62895 17.3163 114.3755 18.3936 114.96665 19.24935 115.2638 20.30775 115.2638 21.5646zM113.12915 20.98395C113.14385 20.32035 112.9979 19.74705 112.69445 19.263 112.307 18.64035 111.71165 18.32955 110.9105 18.32955 110.17865 18.32955 109.5833 18.633 109.12865 19.242 108.7559 19.72605 108.53435 20.3067 108.4661 20.9829L113.12915 20.9829 113.12915 20.98395zM38.5025 4.50945C38.5025 5.7453 38.13185 6.6756 37.3916 7.30035 36.70595 7.8768 35.73155 8.16555 34.46945 8.16555 33.84365 8.16555 33.30815 8.13825 32.8598 8.08365L32.8598 1.3311C33.44465 1.2366 34.07465 1.1883 34.75505 1.1883 35.9573 1.1883 36.86345 1.44975 37.47455 1.97265 38.15915 2.5638 38.5025 3.40905 38.5025 4.50945zM37.34225 4.5399C37.34225 3.73875 37.13015 3.1245 36.70595 2.6961 36.28175 2.26875 35.66225 2.05455 34.8464 2.05455 34.4999 2.05455 34.20485 2.07765 33.9602 2.12595L33.9602 7.2594C34.09565 7.2804 34.34345 7.28985 34.7036 7.28985 35.5457 7.28985 36.19565 7.0557 36.65345 6.5874 37.11125 6.1191 37.34225 5.4366 37.34225 4.5399zM44.65445 5.58885C44.65445 6.3501 44.4371 6.9738 44.0024 7.4631 43.5467 7.96605 42.94295 8.217 42.18905 8.217 41.46245 8.217 40.8839 7.97655 40.45235 7.49355 40.02185 7.0116 39.8066 6.40365 39.8066 5.67075 39.8066 4.90425 40.02815 4.2753 40.47335 3.78705 40.91855 3.2988 41.51705 3.05415 42.27095 3.05415 42.99755 3.05415 43.58135 3.2946 44.0234 3.77655 44.4434 4.24485 44.65445 4.84965 44.65445 5.58885zM43.5131 5.62455C43.5131 5.1678 43.4144 4.77615 43.21805 4.4496 42.98705 4.0548 42.6584 3.8574 42.23105 3.8574 41.789 3.8574 41.453 4.0548 41.222 4.4496 41.0246 4.77615 40.92695 5.1741 40.92695 5.6445 40.92695 6.10125 41.02565 6.4929 41.222 6.81945 41.46035 7.21425 41.79215 7.41165 42.22055 7.41165 42.64055 7.41165 42.97025 7.2111 43.20755 6.80895 43.41125 6.4761 43.5131 6.0813 43.5131 5.62455zM52.90325 3.15495L51.3545 8.10465 50.3465 8.10465 49.70495 5.9553C49.5422 5.41875 49.4099 4.88535 49.307 4.35615L49.28705 4.35615C49.1915 4.90005 49.0592 5.4324 48.8891 5.9553L48.20765 8.10465 47.1881 8.10465 45.73175 3.15495 46.8626 3.15495 47.42225 5.508C47.5577 6.0645 47.669 6.59475 47.75825 7.09665L47.7782 7.09665C47.8601 6.68295 47.99555 6.15585 48.18665 5.5185L48.8891 3.156 49.7858 3.156 50.45885 5.4681C50.6216 6.03195 50.7539 6.5748 50.85575 7.0977L50.8862 7.0977C50.96075 6.58845 51.0731 6.0456 51.2222 5.4681L51.8228 3.156 52.90325 3.156 52.90325 3.15495zM58.6079 8.10465L57.5075 8.10465 57.5075 5.26965C57.5075 4.39605 57.1757 3.95925 56.51 3.95925 56.18345 3.95925 55.9199 4.07895 55.71515 4.3194 55.5125 4.55985 55.4096 4.84335 55.4096 5.1678L55.4096 8.1036 54.3092 8.1036 54.3092 4.5693C54.3092 4.1346 54.29555 3.66315 54.2693 3.15285L55.23635 3.15285 55.2878 3.9267 55.31825 3.9267C55.44635 3.68625 55.63745 3.4878 55.8884 3.32925 56.1866 3.14445 56.5205 3.051 56.8859 3.051 57.3479 3.051 57.7322 3.2001 58.03775 3.49935 58.41785 3.8658 58.6079 4.41285 58.6079 5.13945L58.6079 8.10465z"/>
      <polygon points="61.642 8.105 60.543 8.105 60.543 .884 61.642 .884"/>
      <path d="M68.1209 5.58885C68.1209 6.3501 67.90355 6.9738 67.46885 7.4631 67.01315 7.96605 66.40835 8.217 65.6555 8.217 64.92785 8.217 64.3493 7.97655 63.9188 7.49355 63.4883 7.0116 63.27305 6.40365 63.27305 5.67075 63.27305 4.90425 63.4946 4.2753 63.9398 3.78705 64.385 3.2988 64.9835 3.05415 65.73635 3.05415 66.464 3.05415 67.04675 3.2946 67.48985 3.77655 67.90985 4.24485 68.1209 4.84965 68.1209 5.58885zM66.9785 5.62455C66.9785 5.1678 66.8798 4.77615 66.68345 4.4496 66.4535 4.0548 66.1238 3.8574 65.6975 3.8574 65.2544 3.8574 64.9184 4.0548 64.68845 4.4496 64.49105 4.77615 64.3934 5.1741 64.3934 5.6445 64.3934 6.10125 64.4921 6.4929 64.68845 6.81945 64.9268 7.21425 65.2586 7.41165 65.687 7.41165 66.107 7.41165 66.43565 7.2111 66.67295 6.80895 66.8777 6.4761 66.9785 6.0813 66.9785 5.62455zM73.4465 8.10465L72.45845 8.10465 72.37655 7.5345 72.3461 7.5345C72.008 7.98915 71.52605 8.217 70.90025 8.217 70.433 8.217 70.055 8.06685 69.77045 7.76865 69.51215 7.49775 69.383 7.1607 69.383 6.76065 69.383 6.15585 69.635 5.6949 70.14215 5.3757 70.64825 5.0565 71.36015 4.90005 72.2768 4.9074L72.2768 4.815C72.2768 4.16295 71.9345 3.83745 71.24885 3.83745 70.7606 3.83745 70.3301 3.9603 69.9584 4.2039L69.73475 3.4815C70.19465 3.19695 70.7627 3.05415 71.4326 3.05415 72.7262 3.05415 73.3751 3.73665 73.3751 5.10165L73.3751 6.92445C73.3751 7.419 73.39925 7.81275 73.4465 8.10465zM72.3041 6.40365L72.3041 5.6403C71.0903 5.6193 70.4834 5.95215 70.4834 6.6378 70.4834 6.8961 70.5527 7.0893 70.69445 7.21845 70.8362 7.3476 71.0168 7.41165 71.23205 7.41165 71.47355 7.41165 71.6993 7.335 71.9051 7.18275 72.11195 7.02945 72.239 6.8352 72.28625 6.59685 72.2978 6.5433 72.3041 6.4782 72.3041 6.40365zM79.69925 8.10465L78.72275 8.10465 78.6713 7.3098 78.64085 7.3098C78.329 7.9146 77.7977 8.217 77.05115 8.217 76.45475 8.217 75.9581 7.98285 75.56435 7.51455 75.1706 7.04625 74.97425 6.4383 74.97425 5.69175 74.97425 4.8906 75.1874 4.2417 75.6158 3.7461 76.03055 3.2841 76.53875 3.0531 77.14355 3.0531 77.8082 3.0531 78.27335 3.27675 78.53795 3.7251L78.55895 3.7251 78.55895.8838 79.6604.8838 79.6604 6.77115C79.6604 7.2531 79.673 7.69725 79.69925 8.10465zM78.55895 6.01725L78.55895 5.19195C78.55895 5.04915 78.54845 4.93365 78.5285 4.84545 78.46655 4.58085 78.3332 4.35825 78.13055 4.1787 77.9258 3.99915 77.67905 3.90885 77.3945 3.90885 76.98395 3.90885 76.66265 4.0716 76.4264 4.39815 76.19225 4.7247 76.0736 5.14155 76.0736 5.6508 76.0736 6.1401 76.18595 6.537 76.4117 6.84255 76.65005 7.16805 76.97135 7.3308 77.3735 7.3308 77.7347 7.3308 78.02345 7.19535 78.2429 6.9234 78.455 6.67245 78.55895 6.37005 78.55895 6.01725zM89.1104 5.58885C89.1104 6.3501 88.89305 6.9738 88.45835 7.4631 88.00265 7.96605 87.39995 8.217 86.645 8.217 85.91945 8.217 85.3409 7.97655 84.9083 7.49355 84.4778 7.0116 84.26255 6.40365 84.26255 5.67075 84.26255 4.90425 84.4841 4.2753 84.9293 3.78705 85.3745 3.2988 85.973 3.05415 86.72795 3.05415 87.4535 3.05415 88.03835 3.2946 88.47935 3.77655 88.89935 4.24485 89.1104 4.84965 89.1104 5.58885zM87.9701 5.62455C87.9701 5.1678 87.8714 4.77615 87.67505 4.4496 87.443 4.0548 87.1154 3.8574 86.687 3.8574 86.246 3.8574 85.91 4.0548 85.67795 4.4496 85.48055 4.77615 85.3829 5.1741 85.3829 5.6445 85.3829 6.10125 85.4816 6.4929 85.67795 6.81945 85.9163 7.21425 86.2481 7.41165 86.6765 7.41165 87.0965 7.41165 87.42725 7.2111 87.66455 6.80895 87.8672 6.4761 87.9701 6.0813 87.9701 5.62455zM95.02715 8.10465L93.9278 8.10465 93.9278 5.26965C93.9278 4.39605 93.596 3.95925 92.92925 3.95925 92.6027 3.95925 92.33915 4.07895 92.13545 4.3194 91.93175 4.55985 91.8299 4.84335 91.8299 5.1678L91.8299 8.1036 90.72845 8.1036 90.72845 4.5693C90.72845 4.1346 90.71585 3.66315 90.6896 3.15285L91.6556 3.15285 91.70705 3.9267 91.7375 3.9267C91.86665 3.68625 92.05775 3.4878 92.30765 3.32925 92.6069 3.14445 92.93975 3.051 93.3062 3.051 93.76715 3.051 94.15145 3.2001 94.457 3.49935 94.83815 3.8658 95.02715 4.41285 95.02715 5.13945L95.02715 8.10465zM102.4328 3.9792L101.2211 3.9792 101.2211 6.3837C101.2211 6.9948 101.43635 7.30035 101.86265 7.30035 102.06005 7.30035 102.22385 7.28355 102.353 7.2489L102.38135 8.08365C102.164 8.16555 101.8784 8.2065 101.52665 8.2065 101.09195 8.2065 100.75385 8.0742 100.5092 7.8096 100.2635 7.545 100.1417 7.0998 100.1417 6.47505L100.1417 3.9792 99.41825 3.9792 99.41825 3.15495 100.1417 3.15495 100.1417 2.24775 101.22005 1.92225 101.22005 3.1539 102.43175 3.1539 102.43175 3.9792 102.4328 3.9792zM108.2582 8.10465L107.15675 8.10465 107.15675 5.29065C107.15675 4.4034 106.82495 3.95925 106.1603 3.95925 105.65 3.95925 105.3014 4.2165 105.1103 4.731 105.07775 4.83915 105.05885 4.97145 105.05885 5.12685L105.05885 8.1036 103.9595 8.1036 103.9595.8838 105.05885.8838 105.05885 3.86685 105.07985 3.86685C105.42635 3.324 105.923 3.0531 106.56665 3.0531 107.02235 3.0531 107.3993 3.2022 107.69855 3.50145 108.0713 3.8742 108.2582 4.4286 108.2582 5.1615L108.2582 8.10465zM114.26735 5.39565C114.26735 5.59305 114.25265 5.75895 114.2264 5.8944L110.92625 5.8944C110.94095 6.3837 111.09845 6.75645 111.404 7.01475 111.6833 7.24575 112.04345 7.36125 112.48445 7.36125 112.9727 7.36125 113.4179 7.28355 113.819 7.1271L113.9912 7.8915C113.52185 8.0952 112.96955 8.19705 112.3301 8.19705 111.5636 8.19705 110.95985 7.9713 110.52305 7.5198 110.08415 7.0683 109.8668 6.46245 109.8668 5.70225 109.8668 4.9557 110.06945 4.3341 110.4779 3.8385 110.9042 3.3093 111.48065 3.0447 112.2083 3.0447 112.9202 3.0447 113.46095 3.3093 113.82635 3.8385 114.1214 4.2585 114.26735 4.77825 114.26735 5.39565zM113.21735 5.1111C113.22575 4.78455 113.1533 4.50315 113.0042 4.26585 112.8131 3.9603 112.52225 3.807 112.1285 3.807 111.7694 3.807 111.47645 3.9561 111.2528 4.25535 111.0701 4.4937 110.96195 4.77825 110.92625 5.1111L113.21735 5.1111z"/>
    </g>
  </g>
</svg>
