<svg xmlns="http://www.w3.org/2000/svg" width="160" height="48" viewBox="0 0 160 48">
  <defs>
    <linearGradient id="app-store-google-a" x1="91.488%" x2="-38.352%" y1="4.948%" y2="71.907%">
      <stop offset="0%" stop-color="#00A0FF"/>
      <stop offset="1%" stop-color="#00A1FF"/>
      <stop offset="26%" stop-color="#00BEFF"/>
      <stop offset="51%" stop-color="#00D2FF"/>
      <stop offset="76%" stop-color="#00DFFF"/>
      <stop offset="100%" stop-color="#00E3FF"/>
    </linearGradient>
    <linearGradient id="app-store-google-b" x1="107.685%" x2="-130.64%" y1="50%" y2="50%">
      <stop offset="0%" stop-color="#FFE000"/>
      <stop offset="41%" stop-color="#FFBD00"/>
      <stop offset="78%" stop-color="orange"/>
      <stop offset="100%" stop-color="#FF9C00"/>
    </linearGradient>
    <linearGradient id="app-store-google-c" x1="86.219%" x2="-50.15%" y1="17.877%" y2="194.703%">
      <stop offset="0%" stop-color="#FF3A44"/>
      <stop offset="100%" stop-color="#C31162"/>
    </linearGradient>
    <linearGradient id="app-store-google-d" x1="-18.754%" x2="42.121%" y1="-54.052%" y2="24.917%">
      <stop offset="0%" stop-color="#32A071"/>
      <stop offset="7%" stop-color="#2DA771"/>
      <stop offset="48%" stop-color="#15CF74"/>
      <stop offset="80%" stop-color="#06E775"/>
      <stop offset="100%" stop-color="#00F076"/>
    </linearGradient>
  </defs>
  <g fill="none" fill-rule="evenodd">
    <path fill="#000" fill-rule="nonzero" d="M5,0 L155,0 C157.761424,-5.07265313e-16 160,2.23857625 160,5 L160,43 C160,45.7614237 157.761424,48 155,48 L5,48 C2.23857625,48 3.38176876e-16,45.7614237 0,43 L0,5 C-3.38176876e-16,2.23857625 2.23857625,5.07265313e-16 5,0 Z"/>
    <g fill-rule="nonzero" transform="translate(19.071 10.071)">
      <path fill="#FFF" stroke="#FFF" stroke-width=".2" d="M39.791,3.752 C39.8270712,4.5302926 39.542431,5.28933324 39.0035,5.852 C38.4012722,6.47759338 37.561308,6.81739709 36.6935,6.7865 C35.3624573,6.7760827 34.1673556,5.96877699 33.6607764,4.73785831 C33.1541972,3.50693963 33.4348623,2.09228858 34.373,1.148 C34.9825596,0.525692265 35.8226078,0.183591198 36.6935,0.203 C37.1373955,0.201521003 37.5769027,0.290851736 37.985,0.4655 C38.3649472,0.618751239 38.7031833,0.859834384 38.972,1.169 L38.4155,1.7255 C37.9906142,1.22011027 37.3527791,0.943974359 36.6935,0.98 C36.0307918,0.976749068 35.3953633,1.24364204 34.9337378,1.7191361 C34.4721123,2.19463016 34.2241397,2.83767826 34.247,3.5 C34.232932,4.50084918 34.8223754,5.41188148 35.7410799,5.80922122 C36.6597845,6.20656095 37.7273222,6.01217293 38.447,5.3165 C38.770095,4.96636344 38.9564421,4.51167636 38.972,4.0355 L36.6935,4.0355 L36.6935,3.2795 L39.749,3.2795 C39.7770068,3.43543983 39.7910624,3.59356513 39.791,3.752 Z"/>
      <polygon fill="#FFF" stroke="#FFF" stroke-width=".2" points="44.6 1.127 41.765 1.127 41.765 3.122 44.348 3.122 44.348 3.878 41.765 3.878 41.765 5.873 44.6 5.873 44.6 6.65 40.925 6.65 40.925 .35 44.6 .35"/>
      <polygon fill="#FFF" stroke="#FFF" stroke-width=".2" points="48.044 6.65 47.236 6.65 47.236 1.127 45.471 1.127 45.471 .35 49.85 .35 49.85 1.127 48.044 1.127"/>
      <polygon fill="#FFF" stroke="#FFF" stroke-width=".2" points="52.937 6.65 52.937 .35 53.745 .35 53.745 6.65"/>
      <polygon fill="#FFF" stroke="#FFF" stroke-width=".2" points="57.337 6.65 56.528 6.65 56.528 1.127 54.764 1.127 54.764 .35 59.09 .35 59.09 1.127 57.337 1.127"/>
      <path fill="#FFF" stroke="#FFF" stroke-width=".2" d="M67.2905,5.831 C66.0126393,7.10173927 63.9483607,7.10173927 62.6705,5.831 C61.4317824,4.51979557 61.4317824,2.46970443 62.6705,1.1585 C63.2815984,0.542934025 64.1131116,0.196734615 64.9805,0.196734615 C65.8478884,0.196734615 66.6794016,0.542934025 67.2905,1.1585 C68.5345038,2.46759784 68.5345038,4.52190216 67.2905,5.831 Z M63.269,5.306 C64.2153901,6.24844332 65.7456099,6.24844332 66.692,5.306 C67.6214582,4.28137969 67.6214582,2.71862031 66.692,1.694 C65.7456099,0.751556676 64.2153901,0.751556676 63.269,1.694 C62.3395418,2.71862031 62.3395418,4.28137969 63.269,5.306 Z"/>
      <polygon fill="#FFF" stroke="#FFF" stroke-width=".2" points="69.359 6.65 69.359 .35 70.346 .35 73.412 5.253 73.412 5.253 73.412 4.035 73.412 .35 74.221 .35 74.221 6.65 73.38 6.65 70.178 1.516 70.178 1.516 70.178 2.733 70.178 6.65"/>
      <path fill="#FFF" d="M61.547,15.8375 C59.0851962,15.8490851 57.0978076,17.8521152 57.1055219,20.3139341 C57.1132362,22.7757531 59.1131391,24.7662887 61.5749671,24.7624451 C64.0367951,24.7586016 66.0304727,22.761831 66.0305,20.3 C66.0477966,19.1075925 65.5802932,17.9592452 64.7350679,17.1179788 C63.8898426,16.2767125 62.7393132,15.8146054 61.547,15.8375 Z M61.547,23.009 C60.4373887,23.0866005 59.3931066,22.4780292 58.9136224,21.4743589 C58.4341382,20.4706887 58.6169076,19.2759169 59.3745142,18.4614899 C60.1321207,17.6470629 61.3105797,17.378514 62.3462472,17.7842872 C63.3819147,18.1900604 64.0642898,19.1876818 64.067,20.3 C64.1011699,20.9958055 63.8528343,21.6759124 63.3783474,22.1859859 C62.9038604,22.6960594 62.2434567,22.9928472 61.547,23.009 Z M51.7715,15.8375 C49.3083045,15.8432958 47.3156439,17.8437842 47.3195055,20.3069835 C47.3233671,22.7701829 49.3222902,24.7644137 51.7854918,24.7624863 C54.2486934,24.7605589 56.2444932,22.7632024 56.2445,20.3 C56.2617966,19.1075925 55.7942932,17.9592452 54.9490679,17.1179788 C54.1038426,16.2767125 52.9533132,15.8146054 51.761,15.8375 L51.7715,15.8375 Z M51.7715,23.009 C50.6613095,23.0909767 49.6139826,22.4854399 49.1311193,21.4824014 C48.648256,20.479363 48.8281639,19.2830346 49.584679,18.4663781 C50.3411942,17.6497215 51.5202954,17.3790025 52.5572715,17.7838773 C53.5942476,18.1887521 54.2779775,19.1867912 54.281,20.3 C54.3151699,20.9958055 54.0668343,21.6759124 53.5923474,22.1859859 C53.1178604,22.6960594 52.4574567,22.9928472 51.761,23.009 L51.7715,23.009 Z M40.127,17.213 L40.127,19.103 L44.663,19.103 C44.5918766,19.993194 44.2218369,20.8331842 43.613,21.4865 C42.695324,22.4212359 41.4253704,22.9246409 40.1165,22.8725 C37.3329849,22.8725 35.0765,20.6160151 35.0765,17.8325 C35.0765,15.0489849 37.3329849,12.7925 40.1165,12.7925 C41.3951855,12.7716458 42.6299501,13.2587547 43.55,14.147 L44.8835,12.8135 C43.6286656,11.542851 41.9127543,10.8345168 40.127,10.85 C37.5849088,10.751068 35.1924132,12.0508554 33.8919468,14.2373599 C32.5914803,16.4238645 32.5914803,19.1466355 33.8919468,21.3331401 C35.1924132,23.5196446 37.5849088,24.819432 40.127,24.7205 C41.9453533,24.8026671 43.7103778,24.09436 44.9675,22.778 C46.0675595,21.5693677 46.6548952,19.9805493 46.6055,18.347 C46.6088882,17.9490376 46.573724,17.5516825 46.5005,17.1605 L40.127,17.213 Z M87.7025,18.683 C87.1418836,17.0336706 85.6213241,15.9016057 83.8805,15.8375 C82.7195817,15.8352302 81.6095023,16.3135779 80.8138484,17.1589602 C80.0181944,18.0043425 79.6079402,19.1413493 79.6805,20.3 C79.654713,21.4857609 80.1122226,22.6310298 80.9479048,23.4726528 C81.7835869,24.3142758 82.9255861,24.7798867 84.1115,24.7625 C85.6034014,24.7705419 86.9996755,24.0290178 87.8285,22.7885 L86.306,21.7385 C85.8437333,22.5091393 85.0101491,22.9797754 84.1115,22.9775 C83.180771,23.0129744 82.3229734,22.4758098 81.9485,21.623 L87.923,19.1555 L87.7025,18.683 Z M81.6125,20.174 C81.5695045,19.5179225 81.792392,18.8721522 82.230915,18.3822707 C82.669438,17.8923891 83.2866833,17.5996327 83.9435,17.57 C84.6358383,17.5243792 85.2886197,17.8962167 85.6025,18.515 L81.6125,20.174 Z M76.7615,24.5 L78.725,24.5 L78.725,11.375 L76.7615,11.375 L76.7615,24.5 Z M73.5485,16.835 L73.475,16.835 C72.8764602,16.1658106 72.0208101,15.783824 71.123,15.785 C68.7396542,15.9005752 66.866654,17.8666036 66.866654,20.25275 C66.866654,22.6388964 68.7396542,24.6049248 71.123,24.7205 C72.0237204,24.7356449 72.8849167,24.3511823 73.475,23.6705 L73.538,23.6705 L73.538,24.311 C73.538,26.0225 72.6245,26.936 71.1545,26.936 C70.1531182,26.9125613 69.2652645,26.2860851 68.9075,25.3505 L67.196,26.0645 C67.8550657,27.6676515 69.4211924,28.7103512 71.1545,28.7 C73.454,28.7 75.3545,27.3455 75.3545,24.0485 L75.3545,16.1 L73.5485,16.1 L73.5485,16.835 Z M71.3015,23.009 C69.897532,22.8852678 68.8207452,21.7094098 68.8207452,20.3 C68.8207452,18.8905902 69.897532,17.7147322 71.3015,17.591 C71.9799256,17.6258154 72.6155602,17.9330587 73.0642923,18.4430713 C73.5130244,18.953084 73.7368416,19.6226627 73.685,20.3 C73.7428915,20.9804519 73.5197904,21.6549527 73.0675688,22.1666771 C72.6153473,22.6784015 71.973406,22.9827645 71.291,23.009 L71.3015,23.009 Z M96.9005,11.375 L92.207,11.375 L92.207,24.5 L94.1705,24.5 L94.1705,19.523 L96.911,19.523 C98.4363181,19.632582 99.8950727,18.8809344 100.691137,17.5752216 C101.487201,16.2695088 101.487201,14.6284912 100.691137,13.3227784 C99.8950727,12.0170656 98.4363181,11.265418 96.911,11.375 L96.9005,11.375 Z M96.9005,17.675 L94.16,17.675 L94.16,13.202 L96.9425,13.202 C98.1863833,13.202 99.19475,14.2103667 99.19475,15.45425 C99.19475,16.6981333 98.1863833,17.7065 96.9425,17.7065 L96.9005,17.675 Z M109.007,15.785 C107.546148,15.6976809 106.172721,16.4854424 105.5105,17.7905 L107.2535,18.515 C107.604626,17.8678516 108.304681,17.4889983 109.0385,17.549 C109.542004,17.4901943 110.048026,17.6361186 110.442905,17.9539957 C110.837783,18.2718728 111.088413,18.7350536 111.1385,19.2395 L111.1385,19.376 C110.507862,19.042099 109.804572,18.8689814 109.091,18.872 C107.2115,18.872 105.311,19.922 105.311,21.8225 C105.348472,22.6411942 105.715502,23.409921 106.328588,23.9537872 C106.941674,24.4976535 107.748678,24.7704093 108.566,24.71 C109.573191,24.7823272 110.539547,24.2991488 111.086,23.45 L111.149,23.45 L111.149,24.5 L113.039,24.5 L113.039,19.4495 C113.039,17.15 111.296,15.8165 109.0595,15.8165 L109.007,15.785 Z M108.7655,22.9775 C108.125,22.9775 107.2325,22.652 107.2325,21.8645 C107.2325,20.8145 108.3455,20.468 109.3325,20.468 C109.956244,20.452609 110.572687,20.6049068 111.1175,20.909 C110.981731,22.0843858 110.00085,22.9801676 108.818,23.009 L108.7655,22.9775 Z M119.927,16.1 L117.68,21.791 L117.617,21.791 L115.286,16.1 L113.186,16.1 L116.6825,24.059 L114.6875,28.4795 L116.735,28.4795 L122.111,16.1 L119.927,16.1 Z M102.2765,24.5 L104.24,24.5 L104.24,11.375 L102.2765,11.375 L102.2765,24.5 Z"/>
      <path fill="url(#app-store-google-a)" d="M0.962,0.917 C0.619768205,1.32766375 0.447031333,1.85338467 0.479,2.387 L0.479,25.613 C0.447031333,26.1466153 0.619768205,26.6723362 0.962,27.083 L1.0355,27.1565 L14.045,14.1575 L14.045,13.853 L1.0355,0.8435 L0.962,0.917 Z"/>
      <path fill="url(#app-store-google-b)" d="M18.35,18.494 L14.045,14.1575 L14.045,13.853 L18.35,9.506 L18.4445,9.5585 L23.6,12.488 C25.07,13.3175 25.07,14.6825 23.6,15.5225 L18.4655,18.4415 L18.35,18.494 Z"/>
      <path fill="url(#app-store-google-c)" d="M18.476,18.431 L14.045,14 L0.962,27.083 C1.58015362,27.6263985 2.49755041,27.6528619 3.146,27.146 L18.4865,18.431"/>
      <path fill="url(#app-store-google-d)" d="M18.476,9.569 L3.1355,0.854 C2.48705041,0.34713811 1.56965362,0.37360148 0.9515,0.917 L14.045,14 L18.476,9.569 Z"/>
      <path fill="#000" d="M18.35,18.3365 L3.1355,26.999 C2.51289046,27.4645033 1.65810954,27.4645033 1.0355,26.999 L0.962,27.0725 L1.0355,27.146 C1.65693808,27.6150132 2.51406192,27.6150132 3.1355,27.146 L18.476,18.431 L18.35,18.3365 Z" opacity=".2"/>
      <path fill="#000" d="M.962 26.936C.619768205 26.5253362.447031333 25.9996153.479 25.466L.479 25.6235C.447031333 26.1571153.619768205 26.6828362.962 27.0935L1.0355 27.02.962 26.936zM23.6 15.365L18.35 18.3365 18.4445 18.431 23.6 15.512C24.1954236 15.2322939 24.5958918 14.6556196 24.65 14 24.530331 14.5930798 24.1425413 15.0972065 23.6 15.365z" opacity=".12"/>
      <path fill="#FFF" d="M3.1355,1.001 L23.6,12.635 C24.1425413,12.9027935 24.530331,13.4069202 24.65,14 C24.5958918,13.3443804 24.1954236,12.7677061 23.6,12.488 L3.1355,0.854 C1.6655,0.0245 0.4685,0.7175 0.4685,2.3975 L0.4685,2.555 C0.5,0.8645 1.676,0.1715 3.1355,1.001 Z" opacity=".25"/>
    </g>
  </g>
</svg>
