<svg xmlns="http://www.w3.org/2000/svg" width="40" height="40" viewBox="0 0 40 40">
  <g fill="none" fill-rule="evenodd">
    <path fill="#653FB6" d="M20,35.6214545 C11.3863377,35.6214545 4.37854545,28.6136623 4.37854545,20 C4.37854545,11.3863377 11.3863377,4.37854545 20,4.37854545 C28.6136623,4.37854545 35.6214545,11.3863377 35.6214545,20 C35.6214545,28.6136623 28.6136623,35.6214545 20,35.6214545 M20,1 C9.52384416,1 1,9.52384416 1,20 C1,30.4761558 9.52384416,39 20,39 C30.4761558,39 39,30.4761558 39,20 C39,9.52384416 30.4761558,1 20,1"/>
    <path fill="#653FB6" d="M19.9869385,22.646 C18.5129385,22.646 17.3139385,21.447 17.3139385,19.973 C17.3139385,18.499 18.5129385,17.3 19.9869385,17.3 C21.4609385,17.3 22.6599385,18.499 22.6599385,19.973 C22.6599385,21.447 21.4609385,22.646 19.9869385,22.646 M28.2579385,10 C27.9469385,10 27.6449385,10.084 27.3829385,10.246 L21.1409385,13.994 C20.7579385,13.915 20.3799385,13.877 19.9869385,13.877 C16.6259385,13.877 13.8909385,16.612 13.8909385,19.973 C13.8909385,20.347 13.9249385,20.719 13.9949385,21.109 L10.2429385,27.357 C9.83993852,28.013 9.94693852,28.892 10.4999385,29.445 C10.8259385,29.771 11.2569385,29.951 11.7129385,29.951 C12.0239385,29.951 12.3319385,29.865 12.6029385,29.702 L18.8459385,25.953 C19.2129385,26.03 19.5959385,26.069 19.9869385,26.069 C23.3479385,26.069 26.0829385,23.334 26.0829385,19.973 C26.0829385,19.6 26.0489385,19.227 25.9789385,18.837 L29.7309385,12.589 C30.1339385,11.934 30.0269385,11.054 29.4739385,10.501 C29.1549385,10.182 28.7119385,10 28.2579385,10"/>
  </g>
</svg>
