<svg xmlns="http://www.w3.org/2000/svg" width="40" height="40" viewBox="0 0 40 40">
  <path fill="#653FB6" d="M39.4941421,18.5320583 L37.1384342,18.1807122 L34.395401,10.0911604 C34.2346971,9.63717931 33.8521832,9.24668873 33.326768,9.08676899 C32.4520382,8.81800836 31.5065795,9.25910041 31.2188521,10.0715881 L31.1745863,10.1904539 L24.7060127,28.3673608 L18.108491,3.72540015 L18.0882827,3.64376948 C17.883313,2.88856642 17.2443465,2.25938967 16.370579,2.06175751 C15.1142977,1.77915308 13.8483934,2.49330212 13.5399766,3.65522641 L7.76377708,25.6091033 L4.45828013,18.7392379 L4.39140035,18.6012773 C4.2537916,18.3138991 3.92083616,18.1406129 3.57344623,18.194556 L0.362735727,18.6867269 C0.185191568,18.7139371 0.0379598256,18.8442598 0.00572281025,19.0151591 C-0.0327691484,19.2337956 0.12697248,19.44193 0.362735727,19.4777329 L2.87193028,19.8620176 L6.96458779,29.5899114 C7.09449815,29.8949523 7.36297956,30.1489144 7.72384167,30.2596648 C8.36761968,30.4558648 9.06480528,30.1322063 9.27747335,29.5374004 L9.30393658,29.4653172 L15.5213502,12.0569797 L22.2170264,36.3905578 L22.2300174,36.4402045 C22.4215149,37.126666 22.9902336,37.7071508 23.7797999,37.9181493 C24.9687203,38.2360793 26.2071991,37.599742 26.551221,36.4960571 L33.1631772,15.200954 L35.2475167,19.4495679 L35.3423032,19.6433811 C35.5010825,19.9675169 35.8835963,20.1699228 36.2839127,20.1083418 L39.4941421,19.6333563 C39.7443398,19.5942117 39.9507529,19.4142424 39.9911695,19.1707825 C40.0484263,18.8652642 39.8208426,18.5802729 39.4941421,18.5320583 Z"/>
</svg>
