<svg xmlns="http://www.w3.org/2000/svg" width="40" height="40" viewBox="0 0 40 40">
  <path fill="#653FB6" d="M15,34 L25,34 C25,36.7614237 22.7614237,39 20,39 C17.2385763,39 15,36.7614237 15,34 Z M23.5014513,4.55030244 L23.5014513,6.03986151 C27.7020061,7.46574558 30.5076844,11.2819363 30.5004002,15.5595999 L30.5004002,18.1131297 C30.5018968,19.7154726 31.0996967,21.2645645 32.1859803,22.4810097 L33.2066604,23.6009789 C33.7250693,24.1824324 34.0068203,24.9243573 33.9998746,25.6897215 L33.9998746,25.8297177 C33.9998746,27.5801913 32.52189,28.9992306 30.6987037,28.9992306 L9.43356415,28.9992306 C8.11497829,29.026646 6.89881452,28.3195021 6.31319946,27.1848804 C5.72204355,25.9738363 5.98310055,24.5371007 6.96643469,23.5897792 L7.45052865,23.124992 C8.76775416,21.8618779 9.5065672,20.1469496 9.50355364,18.359523 L9.50355364,15.5595999 C9.49626944,11.2819363 12.3019477,7.46574558 16.5025025,6.03986151 L16.5025025,4.35990767 C16.5025025,2.5042819 18.0692705,1 20.0019769,1 L20.1886155,1 C22.09408,1.16171383 23.542656,2.71412492 23.5014513,4.55030244 Z M17.6612063,9.46047508 C14.9869886,10.3223155 13.1968291,12.6270563 13.1913626,15.2151752 L13.1913626,18.2729329 C13.2026096,20.6632707 12.4402926,23.0034394 11,25 L29,25 C27.4329023,22.9473563 26.5932233,20.5055489 26.5941921,18.0038503 L26.5941921,15.2151752 C26.5887256,12.6270563 24.7985661,10.3223155 22.1243485,9.46047508 C20.712698,8.84650831 19.0728567,8.84650831 17.6612063,9.46047508 Z"/>
</svg>
