<svg xmlns="http://www.w3.org/2000/svg" width="40" height="40" viewBox="0 0 40 40">
  <g fill="none" fill-rule="evenodd">
    <path fill="#653FB6" d="M29.6856415,30.6765707 C29.4164463,30.4073756 29.0578366,30.2589854 28.6763976,30.2589854 L12.9213488,30.2589854 C12.6141049,30.2589854 12.3087634,30.3607659 12.0633488,30.5462537 L7.7790561,33.771839 C2.22773902,27.3263756 2.56351951,17.681961 8.61803171,11.6274488 C11.696178,8.54930244 15.7892756,6.85327805 20.1430073,6.85327805 C24.4957878,6.85327805 28.5888854,8.54930244 31.6670317,11.6274488 C37.6597146,17.6191805 38.0449585,27.1855951 32.6325195,33.6234488 L29.6856415,30.6765707 Z M20.1430073,3.99961951 C15.0273488,3.99961951 10.2179829,5.99242439 6.60049512,9.60896098 C-0.866578049,17.0760341 -0.866578049,29.2269122 6.60049512,36.6939854 C6.87064146,36.9631805 7.2283,37.1115707 7.60973902,37.1115707 C7.92173902,37.1115707 8.21756829,37.0126439 8.46773902,36.8252537 L13.398861,33 L28.0856902,33 L31.6670317,36.6939854 C31.937178,36.9631805 32.2948366,37.1115707 32.6762756,37.1115707 C33.0567634,37.1115707 33.4153732,36.9631805 33.6845683,36.6939854 C41.1525927,29.2269122 41.1525927,17.0760341 33.6845683,9.60896098 C30.0680317,5.99242439 25.2586659,3.99961951 20.1430073,3.99961951 Z"/>
    <path fill="#653FB6" d="M30.6348634 23.7517878C30.3162049 23.9696171 30.0974244 24.3063488 30.0270341 24.6858854 29.8834 25.4696902 30.4008634 26.2221049 31.1846683 26.3685927 31.967522 26.5150805 32.721839 26.0004707 32.8711805 25.2176171 33.020522 24.4347634 32.5087659 23.6785439 31.7259122 23.5263488 31.3473268 23.4531049 30.953522 23.5339585 30.6348634 23.7517878M7.81815122 17.0844049C7.28641951 17.4392098 7.05051707 18.0993561 7.2369561 18.710039 7.42339512 19.3216732 7.98841951 19.7383073 8.6266878 19.7354537 9.20598049 19.7326 9.72915122 19.3844537 9.95459024 18.8498683 10.2019073 18.2620146 10.0354439 17.5799902 9.5427122 17.1728683 9.04998049 16.7666976 8.34988293 16.7296 7.81815122 17.0844049M8.47677561 23.7457C8.15906829 23.5316756 7.76811707 23.4527244 7.39238537 23.5269195 6.66089756 23.6696024 6.15770244 24.3449683 6.22999512 25.0869195 6.30133659 25.829822 6.92533659 26.3957976 7.67014146 26.3938951 7.76526341 26.3948463 7.86038537 26.3853341 7.95360488 26.367261 8.7345561 26.211261 9.24345854 25.4512366 9.08936098 24.6683829 9.01516585 24.2917 8.79448293 23.9597244 8.47677561 23.7457M14.0155366 12.2340415C13.5503902 12.0047976 12.9977317 12.0428463 12.5677805 12.3329683 11.9076341 12.778139 11.7316585 13.6732366 12.1730244 14.3352854 12.6153415 14.9973341 13.5094878 15.1780659 14.1743902 14.7395537 14.6071951 14.4541878 14.853561 13.9586024 14.8212195 13.441139 14.7879268 12.9236756 14.4806829 12.4632854 14.0155366 12.2340415M24.9424805 14.7347024C25.261139 14.9487268 25.6520902 15.0267268 26.0287732 14.9515805 26.4054561 14.8754829 26.7355293 14.6528976 26.9467 14.3323366 27.2710659 13.8453122 27.2710659 13.2118 26.9447976 12.7257268 26.6185293 12.2396537 26.032578 11.9989951 25.4580415 12.1140927 24.8835049 12.2291902 24.4364317 12.6781659 24.3232366 13.2517512 24.2100415 13.8253366 24.4545049 14.4112878 24.9424805 14.7347024M19.6582659 13.0264073C20.3602659 13.2157 21.0946073 12.8551878 21.3723634 12.1826756 21.5569 11.7384561 21.5074366 11.2305049 21.2410951 10.8290902 20.9747537 10.4286268 20.5267293 10.1860659 20.0454122 10.1832122 19.3177293 10.1784561 18.7003878 10.7139927 18.6024122 11.4350171 18.5044366 12.1550902 18.9562659 12.8371146 19.6582659 13.0264073M20.6494366 23.9551585C19.9179488 24.2738171 19.0675585 23.9389878 18.7489 23.2075 18.4302415 22.475061 18.7650707 21.6227683 19.4956073 21.3031585 20.2261439 20.9835488 21.0765341 21.318378 21.3961439 22.0498659L21.4037537 22.0498659C21.7195585 22.7851585 21.3828268 23.6374512 20.6494366 23.9551585zM31.1214122 19.0354512C31.6008268 18.7148902 31.7825098 18.0908902 31.5513634 17.5582073 31.3211683 17.0245732 30.7447293 16.7373049 30.1873146 16.8761829L22.081022 18.9974024C20.4991439 18.0661585 18.506339 18.2725732 17.1422902 19.5072561 15.7791927 20.741939 15.3559 22.7242805 16.0940463 24.4184024 16.8321927 26.1134756 18.5634122 27.1341341 20.3830951 26.9476951 22.2037293 26.7622073 23.6980951 25.4105244 24.0861927 23.6013049L31.1042902 19.0535244 31.1214122 19.0354512z"/>
  </g>
</svg>
