<svg xmlns="http://www.w3.org/2000/svg" width="40" height="40" viewBox="0 0 40 40">
  <g fill="#653FB6" fill-rule="evenodd" transform="translate(5 1)">
    <path d="M15,26.3822903 C11.5296774,21.2019677 7.66741935,14.2458387 7.66741935,10.8268065 C7.66741935,6.65777419 10.9567742,3.26583871 15,3.26583871 C19.0432258,3.26583871 22.3325806,6.65777419 22.3325806,10.8268065 C22.3325806,14.2439032 18.4703226,21.201 15,26.3822903 M15,-0.000290322581 C9.1916129,-0.000290322581 4.46612903,4.85680645 4.46612903,10.8268065 C4.46612903,17.2980968 13.3335484,29.6590645 13.7109677,30.1816452 C14.0109677,30.5977742 14.4929032,30.8464839 15,30.8464839 C15.5070968,30.8464839 15.9890323,30.5977742 16.29,30.1806774 C16.6664516,29.6590645 25.533871,17.2980968 25.533871,10.8268065 C25.533871,4.85680645 20.8083871,-0.000290322581 15,-0.000290322581"/>
    <path d="M15 12.641129C14.0351613 12.641129 13.2503226 11.8272581 13.2503226 10.8266129 13.2503226 9.82596774 14.0351613 9.01209677 15 9.01209677 15.9648387 9.01209677 16.7496774 9.82596774 16.7496774 10.8266129 16.7496774 11.8272581 15.9648387 12.641129 15 12.641129M15 5.74596774C12.27 5.74596774 10.05 8.025 10.05 10.8266129 10.05 13.6282258 12.27 15.9072581 15 15.9072581 17.73 15.9072581 19.95 13.6282258 19.95 10.8266129 19.95 8.025 17.73 5.74596774 15 5.74596774M24.3735484 25.3673226C24.2070968 25.3102258 24.0348387 25.2821613 23.8625806 25.2821613L23.8616129 25.2821613C23.1716129 25.2821613 22.56 25.7302258 22.3412903 26.397 22.0635484 27.2466774 22.5145161 28.1718387 23.3448387 28.4611935 26.1783871 29.4405484 26.7987097 30.5215161 26.7987097 30.8553871 26.7987097 31.9382903 22.7845161 34.4757097 15 34.4757097 7.21548387 34.4757097 3.20129032 31.9382903 3.20129032 30.8553871 3.20129032 30.5215161 3.82064516 29.4395806 6.65225806 28.463129 7.48451613 28.1747419 7.93451613 27.2495806 7.65677419 26.3989355 7.44 25.7321613 6.82935484 25.283129 6.13741935 25.283129 5.96419355 25.283129 5.79290323 25.3111935 5.62741935 25.3673226 1.99741935 26.6224839 0 28.5715161 0 30.8553871 0 34.2782903 5.15225806 37.7418387 15 37.7418387 24.8477419 37.7418387 30 34.2782903 30 30.8553871 30 28.5724839 28.0025806 26.6224839 24.3735484 25.3673226"/>
  </g>
</svg>
