<svg xmlns="http://www.w3.org/2000/svg" width="40" height="40" viewBox="0 0 40 40">
  <g fill="#E94026" fill-rule="evenodd">
    <path fill-rule="nonzero" d="M20,37 C29.3888407,37 37,29.3888407 37,20 C37,10.6111593 29.3888407,3 20,3 C10.6111593,3 3,10.6111593 3,20 C3,29.3888407 10.6111593,37 20,37 Z M20,40 C8.954305,40 0,31.045695 0,20 C0,8.954305 8.954305,0 20,0 C31.045695,0 40,8.954305 40,20 C40,31.045695 31.045695,40 20,40 Z"/>
    <g transform="translate(13 13)">
      <path d="M13.4350288,1.41421356 C14.2160774,2.19526215 14.2160774,3.4615921 13.4350288,4.24264069 L4.24264069,13.4350288 C3.4615921,14.2160774 2.19526215,14.2160774 1.41421356,13.4350288 C0.633164979,12.6539803 0.633164979,11.3876503 1.41421356,10.6066017 L10.6066017,1.41421356 C11.3876503,0.633164979 12.6539803,0.633164979 13.4350288,1.41421356 Z"/>
      <path d="M1.41421356,1.41421356 C2.19526215,0.633164979 3.4615921,0.633164979 4.24264069,1.41421356 L13.4350288,10.6066017 C14.2160774,11.3876503 14.2160774,12.6539803 13.4350288,13.4350288 C12.6539803,14.2160774 11.3876503,14.2160774 10.6066017,13.4350288 L1.41421356,4.24264069 C0.633164979,3.4615921 0.633164979,2.19526215 1.41421356,1.41421356 Z"/>
    </g>
  </g>
</svg>
