<svg xmlns="http://www.w3.org/2000/svg" width="36" height="36" viewBox="0 0 36 36">
  <path fill="#015" d="M17.9999998,0 C10.3093332,0 4,6.23519666 4,13.8805575 C4,16.7382894 4.89614596,19.5215044 6.57614594,21.9338755 C6.57614594,21.9709889 6.61377085,22.0452157 6.68843751,22.1194425 L16.6933332,35.369362 L16.7305209,35.4063307 C17.0665209,35.7774647 17.5146665,36 17.9999998,36 C18.4853331,36 18.9334791,35.7774647 19.2694791,35.4063307 L19.3066665,35.369362 L29.2751039,22.1564112 C29.3871039,22.0821844 29.4616249,21.9712791 29.4989583,21.8599389 C31.1416249,19.5217946 32,16.7752577 32,13.9175258 C32,6.23505155 25.7279997,0 17.9999998,0 Z M17.9628125,1.8556701 C24.645479,1.8556701 30.0961456,7.2742268 30.0961456,13.9175258 C30.0961456,16.4041237 29.3491874,18.7792363 27.9305207,20.8204734 C27.8931874,20.8575868 27.8561457,20.8949905 27.8561457,20.9321039 L17.9628125,33.9957312 L8.14385434,20.9321039 L8.10666661,20.8951352 C8.10666661,20.8580218 8.06962523,20.8575868 8.03229189,20.8204734 C6.57629191,18.7421229 5.79229192,16.3671554 5.79229192,13.8805575 C5.86695859,7.23725852 11.3174792,1.8556701 17.9628125,1.8556701 Z M17.9628125,6.93991633 C14.2294792,6.93991633 11.2056252,9.83476169 11.2056252,13.4347617 C11.2056252,17.0347617 14.2294792,19.9296071 17.9628125,19.9296071 C21.6961457,19.9296071 24.7199997,17.0347617 24.7199997,13.4347617 C24.7199997,9.83476169 21.6961457,6.93991633 17.9628125,6.93991633 Z M17.9628125,8.79558643 C20.6508124,8.79558643 22.8533331,10.8739369 22.8533331,13.4347617 C22.8533331,15.9955864 20.6508124,18.0739369 17.9628125,18.0739369 C15.2748125,18.0739369 13.0722918,15.9955864 13.0722918,13.4347617 C13.0722918,10.8739369 15.2748125,8.79558643 17.9628125,8.79558643 Z"/>
</svg>
