<svg xmlns="http://www.w3.org/2000/svg" width="75" height="22" viewBox="0 0 75 22">
  <defs>
    <radialGradient id="services-partner-swisscom-a" cx="11.237%" cy="22.446%" r="138.014%" fx="11.237%" fy="22.446%" gradientTransform="matrix(1 0 0 .61746 0 .086)">
      <stop offset="0%" stop-color="#42B4F3" stop-opacity=".98"/>
      <stop offset="100%" stop-color="#003A80"/>
    </radialGradient>
    <radialGradient id="services-partner-swisscom-b" cx="86.925%" cy="42.512%" r="83.75%" fx="86.925%" fy="42.512%" gradientTransform="matrix(1 0 0 .54684 0 .193)">
      <stop offset="0%" stop-color="#5BC0FF" stop-opacity=".98"/>
      <stop offset="100%" stop-color="#003789"/>
    </radialGradient>
    <radialGradient id="services-partner-swisscom-c" cx="71.176%" cy="27.917%" r="134.815%" fx="71.176%" fy="27.917%" gradientTransform="matrix(1 0 0 .44242 0 .156)">
      <stop offset="0%" stop-color="#5FC7FF"/>
      <stop offset="100%" stop-color="#003785" stop-opacity=".98"/>
    </radialGradient>
    <radialGradient id="services-partner-swisscom-d" cx="46.793%" cy="19.857%" r="113.677%" fx="46.793%" fy="19.857%" gradientTransform="matrix(1 0 0 .82756 0 .034)">
      <stop offset="0%" stop-color="#EC0A1C"/>
      <stop offset="100%" stop-color="#BB0E15"/>
    </radialGradient>
    <radialGradient id="services-partner-swisscom-e" cx="29.824%" cy="20.385%" r="162.326%" fx="29.824%" fy="20.385%" gradientTransform="matrix(1 0 0 .40462 0 .121)">
      <stop offset="0%" stop-color="#EC0A1C"/>
      <stop offset="100%" stop-color="#9E0D18"/>
    </radialGradient>
    <linearGradient id="services-partner-swisscom-f" x1="91.082%" x2="31.124%" y1="100.996%" y2="-.026%">
      <stop offset="0%" stop-color="#320000"/>
      <stop offset="100%" stop-color="#5D0000"/>
    </linearGradient>
    <radialGradient id="services-partner-swisscom-g" cx="94.023%" cy="91.876%" r="201.584%" fx="94.023%" fy="91.876%" gradientTransform="matrix(1 0 0 .46674 0 .49)">
      <stop offset="0%" stop-color="#003789"/>
      <stop offset="100%" stop-color="#5FC7FF" stop-opacity=".98"/>
    </radialGradient>
  </defs>
  <g fill="none" fill-rule="evenodd">
    <rect width="75" height="22"/>
    <g>
      <path fill="url(#services-partner-swisscom-a)" d="M4.44816754,18.0536965 C4.6408377,18.233463 4.84188482,18.4046693 5.0513089,18.5587549 C5.19371728,18.6614786 5.34450262,18.7642023 5.49528796,18.8583658 C5.69633508,18.9867704 5.90575916,19.1066148 6.11518325,19.2178988 C6.4,19.3719844 6.85235602,19.5774319 7.13717277,19.6972763 C7.07853403,19.6031128 7.03664921,19.5431907 6.97801047,19.4404669 C6.83560209,19.277821 6.70157068,19.1151751 6.57591623,18.892607 C6.47539267,18.7128405 6.37486911,18.4988327 6.28272251,18.2077821 C6.22408377,18.0280156 6.15706806,17.8225681 6.09842932,17.6 C6.0565445,17.4459144 6.01465969,17.2832685 5.98115183,17.1035019 C5.97277487,17.0692607 5.94764398,16.940856 5.93926702,16.9066148 C5.90575916,16.7268482 5.87225131,16.5642023 5.83036649,16.4015564 C5.79685864,16.2389105 5.75497382,16.0848249 5.70471204,15.9307393 C5.62094241,15.6824903 5.53717277,15.4513619 5.43664921,15.2287938 C5.31937173,14.9548638 5.19371728,14.6980545 5.0513089,14.4669261 C4.9591623,14.3128405 4.72460733,13.9875486 4.61570681,13.8505837 C4.53193717,13.7478599 4.46492147,13.6622568 4.3895288,13.5766537 C4.33089005,13.5167315 4.27225131,13.448249 4.2052356,13.3626459 C4.12146597,13.2684825 4.02931937,13.1743191 3.94554974,13.088716 C3.93717277,13.0801556 3.94554974,13.088716 3.92879581,13.0972763 C3.75287958,13.3284047 3.59371728,13.5595331 3.45968586,13.8077821 C3.35078534,14.0046693 3.25863874,14.2101167 3.19162304,14.4241245 C3.14973822,14.5439689 3.12460733,14.6638132 3.09947644,14.7922179 C3.07434555,14.9206226 3.06596859,15.0490272 3.05759162,15.1774319 C3.04921466,15.3400778 3.05759162,15.5027237 3.08272251,15.67393 C3.1078534,15.8451362 3.14973822,16.0249027 3.21675393,16.2132296 C3.2921466,16.4272374 3.39267016,16.6412451 3.51832461,16.8638132 C3.53507853,16.8894942 3.55183246,16.9237354 3.56858639,16.9494163 C3.7947644,17.3603113 4.10471204,17.7198444 4.44816754,18.0536965 L4.44816754,18.0536965 Z"/>
      <path fill="url(#services-partner-swisscom-b)" d="M7.13717277,21.9400778 C7.52251309,21.9058366 7.93298429,21.8544747 8.35183246,21.7774319 C8.87120419,21.6832685 9.39895288,21.5463035 9.93507853,21.3750973 C10.3874346,21.229572 10.8314136,21.0583658 11.2753927,20.8614786 C11.6691099,20.6817121 12.0544503,20.4848249 12.4230366,20.2708171 C12.9005236,19.9883268 13.3612565,19.663035 13.7717277,19.3035019 C14.2492147,18.8840467 14.6680628,18.4217899 15.0115183,17.9081712 C15.3717277,17.3688716 15.6397906,16.7696498 15.8073298,16.1190661 C15.8994764,15.7595331 15.9497382,15.3914397 15.9664921,14.9976654 C15.9832461,14.5610895 15.9413613,14.1416342 15.8408377,13.7307393 C15.7068063,13.1828794 15.4722513,12.6521401 15.1539267,12.1385214 C14.7602094,11.4879377 14.2324607,10.863035 13.6293194,10.2552529 C13.017801,9.63035019 12.3225131,9.02256809 11.5853403,8.40622568 C11.1329843,8.02957198 10.6722513,7.65291829 10.2031414,7.26770428 C9.84293194,6.9766537 9.48272251,6.6770428 9.11413613,6.3688716 C8.71204188,6.02645914 8.30994764,5.68404669 7.91623037,5.33307393 C7.57277487,5.01634241 7.23769634,4.70817121 6.91099476,4.39143969 C6.80209424,4.28871595 6.70157068,4.17743191 6.59267016,4.07470817 C6.25759162,3.73229572 5.93089005,3.36420233 5.58743455,2.95330739 C5.78010471,3.24435798 6.08167539,3.68093385 6.37486911,4.12607004 C6.57591623,4.44280156 6.77696335,4.75953307 6.91937173,5.04202335 C6.98638743,5.17042802 7.03664921,5.29883268 7.07853403,5.41011673 C7.11204188,5.51284047 7.13717277,5.59844358 7.13717277,5.67548638 L7.13717277,6.07782101 L7.13717277,9.33929961 L7.13717277,12.044358 L7.13717277,15.5455253 L7.13717277,19.8256809 C7.13717277,20.9727626 7.13717277,21.9400778 7.13717277,21.9400778 L7.13717277,21.9400778 Z"/>
      <path fill="url(#services-partner-swisscom-c)" d="M7.13717277,19.6972763 C7.13717277,19.6972763 7.85759162,18.8326848 8.05863874,18.5844358 C8.19267016,18.4217899 8.49424084,18.0280156 8.77905759,17.6513619 C9.05549738,17.2832685 9.31518325,16.9322957 9.39895288,16.8210117 C9.43246073,16.7696498 9.88481675,16.1105058 9.92670157,16.0505837 C10.1445026,15.7338521 9.98534031,15.9564202 10.1109948,15.7937743 C10.1612565,15.7167315 10.1863874,15.6996109 10.504712,15.2031128 C10.5382199,15.151751 10.5968586,15.0490272 10.6471204,14.9719844 C10.6722513,14.9206226 10.9403141,14.4840467 10.965445,14.4498054 C11.0157068,14.3642023 11.0659686,14.2785992 11.1078534,14.2015564 C11.2335079,13.970428 11.3256545,13.7906615 11.426178,13.6023346 C11.652356,13.1743191 11.7696335,12.9688716 11.9706806,12.5151751 C12.113089,12.1984436 12.2722513,11.8303502 12.3727749,11.5564202 C12.4481675,11.3680934 12.5570681,11.0684825 12.6073298,10.9058366 C12.6492147,10.7945525 12.7413613,10.4949416 12.8,10.3066148 C12.9005236,9.95564202 12.9591623,9.72451362 12.9759162,9.63035019 C12.9842932,9.59610895 12.9256545,9.37354086 12.9256545,9.37354086 C12.6910995,9.16809339 12.3643979,8.8770428 12.1465969,8.69727626 C12.0628272,8.62023346 11.4094241,8.07237354 11.3005236,7.97821012 C10.8816754,7.62723735 10.2701571,7.12217899 9.82617801,6.7540856 C9.36544503,6.37743191 9.08062827,6.13774319 8.65340314,5.77821012 C7.09528796,4.46848249 6.33298429,3.58677043 5.51204188,2.82490272 C5.92251309,3.77509728 6.96963351,5.13618677 6.96963351,6.07782101 L6.96963351,7.32762646 L6.96963351,8.88560311 L6.96963351,10.6490272 L6.96963351,12.5922179 L6.96963351,14.0731518 L6.96963351,14.6466926 L6.96963351,19.4319066 C6.96963351,19.4404669 7.02827225,19.52607 7.13717277,19.6972763 L7.13717277,19.6972763 Z"/>
      <path fill="url(#services-partner-swisscom-d)" d="M8.1591623,5.54708171 C8.23455497,5.6155642 8.29319372,5.66692607 8.46910995,5.81245136 C8.54450262,5.87237354 8.72879581,6.03501946 8.79581152,6.09494163 C8.92984293,6.20622568 9.41570681,6.60856031 9.46596859,6.65992218 C9.48272251,6.6770428 9.51623037,6.70272374 9.55811518,6.73696498 C9.83455497,6.96809339 10.5549738,7.55875486 10.7727749,7.7385214 C10.7727749,7.7385214 10.7811518,7.74708171 10.7979058,7.76420233 C10.965445,7.90116732 11.8031414,8.59455253 12.2219895,8.9540856 C12.6073298,9.28793774 12.9424084,9.60466926 12.9759162,9.63035019 C13.0596859,9.23657588 13.1183246,8.85136187 13.1602094,8.49182879 C13.2104712,7.98677043 13.2188482,7.507393 13.1769634,7.07081712 C13.1183246,6.31750973 12.9340314,5.65836576 12.6743455,5.0848249 C12.4146597,4.51128405 12.0712042,4.03190661 11.6774869,3.62957198 C11.6356021,3.58677043 11.5937173,3.54396887 11.5518325,3.50972763 C11.3172775,3.28715953 11.0743455,3.09027237 10.8062827,2.91906615 C10.5465969,2.74785992 10.2701571,2.60233463 9.98534031,2.47392996 C9.47434555,2.25992218 8.96335079,2.13151751 8.5026178,2.09727626 C7.94136126,2.05447471 7.42198953,2.14863813 7.08691099,2.33696498 C7.01989529,2.37120623 6.96125654,2.39688716 6.96125654,2.39688716 L6.96125654,3.22723735 L6.96125654,4.45992218 C6.97801047,4.4770428 7.12041885,4.60544747 7.12041885,4.61400778 C7.37172775,4.8536965 7.67329843,5.13618677 7.82408377,5.27315175 C7.94973822,5.35875486 8.05026178,5.45291829 8.1591623,5.54708171 L8.1591623,5.54708171 Z"/>
      <path fill="url(#services-partner-swisscom-e)" d="M6.00628272,17.8824903 C6.03141361,17.9766537 6.06492147,18.0793774 6.09842932,18.1735409 C6.1486911,18.3190661 6.19895288,18.4560311 6.24921466,18.6015564 C6.34136126,18.8155642 6.44188482,19.029572 6.57591623,19.2178988 C6.67643979,19.3634241 6.79371728,19.4918288 6.93612565,19.5945525 C6.9947644,19.6373541 7.0617801,19.6715953 7.13717277,19.7058366 L7.13717277,15.7766537 C7.13717277,15.7766537 7.09528796,15.7680934 7.0617801,15.7595331 C7.02827225,15.7509728 6.97801047,15.7338521 6.97801047,15.7338521 L6.97801047,10.8715953 L6.97801047,6.64280156 L6.97801047,6.09494163 C6.97801047,5.86381323 7.13717277,5.67548638 7.13717277,5.67548638 C7.13717277,5.68404669 7.13717277,5.67548638 7.13717277,5.67548638 C7.13717277,5.60700389 7.10366492,5.48715953 7.08691099,5.43579767 C7.02827225,5.27315175 6.95287958,5.11050584 6.87748691,4.95642023 C6.82722513,4.87081712 6.87748691,4.95642023 6.82722513,4.87081712 C6.69319372,4.64824903 6.45863874,4.2459144 6.31623037,4.03190661 C6.10680628,3.70661479 6.1486911,3.77509728 5.93926702,3.45836576 C5.86387435,3.34708171 5.71308901,3.11595331 5.63769634,2.99610895 C5.52879581,2.82490272 5.37801047,2.25992218 5.3026178,2.07159533 C5.07643979,2.24280156 4.72460733,2.51673152 4.49842932,2.68793774 C3.96230366,3.09027237 3.41780105,3.492607 2.89842932,3.91206226 C2.55497382,4.18599222 2.21989529,4.4770428 1.89319372,4.78521401 C1.59162304,5.06770428 1.27329843,5.3844358 0.996858639,5.72684825 C0.477486911,6.36031128 0.0670157068,7.09649805 0.00837696335,7.91828794 C5.75407777e-15,8.05525292 5.75407777e-15,8.1922179 0.00837696335,8.32062257 C0.0167539267,8.46614786 0.0335078534,8.60311284 0.0670157068,8.74007782 C0.167539267,9.26225681 0.393717277,9.71595331 0.686910995,10.1097276 C1.01361257,10.5548638 1.42408377,10.9486381 1.84293194,11.3252918 C1.91832461,11.385214 1.98534031,11.4536965 2.06073298,11.5136187 C2.55497382,11.9501946 3.05759162,12.3782101 3.52670157,12.8404669 C4.2052356,13.5081712 4.82513089,14.2529183 5.26073298,15.1688716 C5.62094241,16.033463 5.7382199,16.9750973 6.00628272,17.8824903 L6.00628272,17.8824903 Z"/>
      <path fill="#FFF" d="M7.13717277,5.66692607 L7.13717277,5.66692607 C6.60942408,5.73540856 6.25759162,6.04357977 6.04816754,6.53151751 C5.85549738,6.96809339 5.75497382,7.45603113 5.47015707,7.84980545 C4.88376963,8.67159533 3.3591623,8.48326848 3.12460733,9.61322957 C2.78115183,11.27393 4.90052356,11.6249027 5.52041885,12.7805447 C5.98115183,13.6280156 5.75497382,14.9548638 6.62617801,15.5540856 C6.76020942,15.648249 6.91099476,15.7081712 7.0617801,15.7509728 C7.12041885,15.7680934 7.12879581,15.7680934 7.14554974,15.7680934 C7.13717277,15.7595331 7.13717277,5.66692607 7.13717277,5.66692607 L7.13717277,5.66692607 Z"/>
      <path fill="url(#services-partner-swisscom-f)" d="M7.13717277,15.7680934 C7.11204188,15.7595331 7.08691099,15.7595331 7.05340314,15.7509728 C6.9026178,15.7081712 6.75183246,15.648249 6.61780105,15.5540856 C5.74659686,14.9548638 5.97277487,13.6280156 5.51204188,12.7805447 C5.36963351,12.5151751 5.13507853,12.2840467 4.88376963,12.0785992 C4.87539267,12.0700389 4.86701571,12.0614786 4.85863874,12.0614786 C4.75811518,12.1642023 4.60732984,12.3268482 4.36439791,12.5750973 C4.08795812,12.8575875 3.83664921,13.1914397 3.83664921,13.1914397 L3.83664921,13.1914397 C4.38115183,13.7649805 4.85863874,14.4070039 5.21884817,15.1688716 C5.6460733,16.1276265 5.75497382,17.1805447 6.08167539,18.1821012 C6.19895288,18.5501946 6.34973822,18.9182879 6.56753927,19.2264591 C6.70994764,19.4233463 6.87748691,19.5945525 7.12879581,19.6972763 L7.12879581,15.8108949 L7.12879581,15.7680934 L7.13717277,15.7680934 L7.13717277,15.7680934 L7.13717277,15.7680934 Z"/>
      <path fill="url(#services-partner-swisscom-g)" d="M6.11518325,3.55252918 C6.20732984,3.65525292 6.32460733,3.78365759 6.43350785,3.89494163 C6.56753927,4.03190661 6.68481675,4.16031128 6.83560209,4.30583658 C6.92774869,4.4 7.04502618,4.51128405 7.14554974,4.60544747 L7.14554974,3.20155642 L7.14554974,1.60933852 L7.14554974,0.0684824903 C7.07853403,0.0513618677 6.96963351,0.0428015564 6.83560209,0.0513618677 C6.61780105,0.059922179 6.33298429,0.111284047 6.0565445,0.214007782 C5.83874346,0.299610895 5.62094241,0.410894942 5.44502618,0.564980545 C5.24397906,0.73618677 5.10157068,0.958754864 5.04293194,1.23268482 C4.98429319,1.52373541 5.02617801,1.87470817 5.21884817,2.29416342 C5.31099476,2.49105058 5.45340314,2.74785992 5.58743455,2.93618677 C5.59581152,2.94474708 5.69633508,3.06459144 5.75497382,3.13307393 C5.85549738,3.27003891 5.98115183,3.4155642 6.11518325,3.55252918 L6.11518325,3.55252918 Z"/>
    </g>
    <path fill="#015" d="M49.5985401,9.02 C49.2153285,8.8825 48.6131387,8.7175 48.120438,8.7175 C47.5456204,8.7175 47.1076642,8.855 47.1076642,9.3775 C47.1076642,10.5875 50.2554745,9.845 50.2554745,12.375 C50.2554745,14.08 48.8868613,14.74 47.3266423,14.74 C46.6149635,14.74 45.9032847,14.63 45.2463504,14.4375 L45.3558394,12.9525 C45.3558394,12.9525 46.3686131,13.31 47.2445255,13.31 C47.8467153,13.31 48.3394161,13.1175 48.3394161,12.595 C48.3394161,11.275 45.1916058,12.1275 45.1916058,9.625 C45.1916058,8.0575 46.5054745,7.425 47.9562044,7.425 C48.8047445,7.425 49.5164234,7.59 49.9270073,7.7275 L49.5985401,9.02 L49.5985401,9.02 Z M43.8777372,9.02 C43.4671533,8.8825 42.8923358,8.7175 42.399635,8.7175 C41.8248175,8.7175 41.3868613,8.855 41.3868613,9.3775 C41.3868613,10.5875 44.5346715,9.845 44.5346715,12.375 C44.5346715,14.08 43.1386861,14.74 41.6058394,14.74 C40.8941606,14.74 40.1824818,14.63 39.4981752,14.4375 L39.6350365,12.9525 C39.6350365,12.9525 40.6751825,13.31 41.5237226,13.31 C42.0985401,13.31 42.6186131,13.1175 42.6186131,12.595 C42.6186131,11.275 39.4708029,12.1275 39.4708029,9.625 C39.4708029,8.0575 40.8120438,7.425 42.2354015,7.425 C43.0839416,7.425 43.7956204,7.59 44.2335766,7.7275 L43.8777372,9.02 L43.8777372,9.02 Z M72.8375912,7.3425 C74.2062044,7.3425 75,8.085 75,9.7075 L75,14.575 L73.1934307,14.575 L73.1934307,10.065 C73.1934307,9.3225 72.9744526,8.855 72.2080292,8.855 C71.4416058,8.855 70.7572993,9.5425 70.7572993,10.7525 L70.7572993,14.575 L68.9781022,14.575 L68.9781022,10.065 C68.9781022,9.3775 68.7591241,8.855 67.9927007,8.855 C67.1715328,8.855 66.5419708,9.5975 66.5419708,10.835 L66.5419708,14.575 L64.7080292,14.575 L64.7080292,7.5075 C65.9124088,7.37 66.3777372,7.865 66.4051095,8.635 C66.8430657,7.8375 67.6094891,7.3425 68.5948905,7.3425 C69.8540146,7.3425 70.3740876,8.0575 70.5383212,8.7175 C70.8667883,8.0025 71.6332117,7.3425 72.8375912,7.3425 L72.8375912,7.3425 L72.8375912,7.3425 Z M35.7755474,7.48 C35.3923358,9.57 34.379562,12.8975 33.7226277,14.5475 L31.8065693,14.5475 L30.4653285,9.8175 L30.4379562,9.8175 L29.0967153,14.5475 L27.1806569,14.5475 C26.5784672,12.8975 25.4562044,9.4875 25.1277372,7.48 L26.9343066,7.48 L28.1386861,12.3475 L28.1660584,12.3475 L29.5894161,7.48 L31.3959854,7.48 L32.7919708,12.32 L32.8193431,12.32 L34.0237226,7.48 L35.7755474,7.48 L35.7755474,7.48 Z M24.0328467,9.02 C23.649635,8.8825 23.0474453,8.7175 22.5547445,8.7175 C21.979927,8.7175 21.5693431,8.855 21.5693431,9.3775 C21.5693431,10.5875 24.689781,9.845 24.689781,12.375 C24.689781,14.08 23.3211679,14.74 21.7609489,14.74 C21.0492701,14.74 20.3375912,14.63 19.6806569,14.4375 L19.790146,12.9525 C19.790146,12.9525 20.830292,13.31 21.6788321,13.31 C22.2810219,13.31 22.7737226,13.1175 22.7737226,12.595 C22.7737226,11.275 19.6259124,12.1275 19.6259124,9.625 C19.6259124,8.0575 20.939781,7.425 22.3905109,7.425 C23.2390511,7.425 23.9507299,7.59 24.3613139,7.7275 L24.0328467,9.02 L24.0328467,9.02 Z M60.1916058,14.7125 C58.1934307,14.7125 56.7974453,13.6125 56.7974453,11.1375 C56.7974453,8.9375 58.2755474,7.3425 60.4105839,7.3425 C62.4087591,7.3425 63.6952555,8.47 63.6952555,10.8625 C63.6952555,13.1725 62.2992701,14.7125 60.1916058,14.7125 L60.1916058,14.7125 L60.1916058,14.7125 Z M60.2737226,8.91 C59.4525547,8.91 58.6861314,9.515 58.6861314,11.0825 C58.6861314,12.43 59.1788321,13.1725 60.2463504,13.1725 C61.149635,13.1725 61.8339416,12.43 61.8339416,11 C61.8339416,9.625 61.3412409,8.91 60.2737226,8.91 L60.2737226,8.91 L60.2737226,8.91 Z M36.5967153,14.575 L38.4032847,14.575 L38.4032847,7.5075 C37.5547445,7.425 36.5967153,7.645 36.5967153,8.9925 L36.5967153,14.575 L36.5967153,14.575 Z M37.5821168,6.6 C38.2116788,6.6 38.7317518,6.105 38.7317518,5.4725 C38.7317518,4.8675 38.2116788,4.3725 37.5821168,4.3725 C36.979927,4.3725 36.459854,4.84 36.459854,5.4725 C36.459854,6.105 36.979927,6.6 37.5821168,6.6 L37.5821168,6.6 L37.5821168,6.6 Z M54.4434307,14.685 C52.3631387,14.685 50.9945255,13.64 50.9945255,11.1375 C50.9945255,9.02 52.1715328,7.37 54.7445255,7.37 C55.2919708,7.37 56.0036496,7.48 56.4689781,7.6725 L56.0857664,9.1575 C55.6751825,9.02 55.2645985,8.91 54.7992701,8.91 C53.4854015,8.91 52.9379562,9.7625 52.9379562,11.0825 C52.9379562,12.3475 53.4306569,13.1725 54.7171533,13.1725 C55.3193431,13.1725 55.729927,13.035 56.1405109,12.87 L56.3594891,14.3275 C55.9762774,14.52 55.2372263,14.685 54.4434307,14.685 L54.4434307,14.685 Z"/>
  </g>
</svg>
