<svg xmlns="http://www.w3.org/2000/svg" width="36" height="36" viewBox="0 0 36 36">
  <path fill="#015" d="M17.3333333,2 C16.96,2 16.6666667,2.29333333 16.6666667,2.66666667 L16.6666667,3.35989584 C8.53333333,3.70656251 2,10.4266667 2,18.6666667 C2,27.12 8.88,34 17.3333333,34 C25.5733333,34 32.2934373,27.4666667 32.640104,19.3333333 L33.3333333,19.3333333 C33.7066667,19.3333333 34,19.04 34,18.6666667 L34,18.5864584 C33.9466667,9.43979173 26.5066667,2 17.3333333,2 Z M18,3.35989584 C25.92,3.70656251 32.320104,10.08 32.640104,18 L30.6666667,18 C25.9466667,13.3333333 19.12,6.53322907 18,5.35989573 L18,3.35989584 Z M16.6666667,4.69322907 L16.6666667,5.49322907 C16.5866667,5.83989573 16.7735416,6.02666667 17.4135416,6.66666667 C17.7602083,7.04 18.2667709,7.5465624 18.9067709,8.15989573 C20.1334376,9.3865624 21.7602083,11.0134376 23.4135416,12.6401043 L29.9734373,19.1468749 C30.1067707,19.2802083 30.2664587,19.3333333 30.4531253,19.3333333 L31.359896,19.3333333 C31.0132293,26.7466667 24.8797917,32.6666667 17.3864584,32.6666667 C9.67979173,32.6666667 3.3864584,26.3733333 3.3864584,18.6666667 C3.33312507,11.1733333 9.25333333,5.03989573 16.6666667,4.69322907 Z M17.3333333,11.3333333 C13.28,11.3333333 10,14.6133333 10,18.6666667 C10,22.72 13.28,26 17.3333333,26 C21.3866667,26 24.6666667,22.72 24.6666667,18.6666667 C24.6666667,14.6133333 21.3866667,11.3333333 17.3333333,11.3333333 Z M17.3333333,12.6666667 C20.64,12.6666667 23.3333333,15.36 23.3333333,18.6666667 C23.3333333,21.9733333 20.64,24.6666667 17.3333333,24.6666667 C14.0266667,24.6666667 11.3333333,21.9733333 11.3333333,18.6666667 C11.3333333,15.36 14.0266667,12.6666667 17.3333333,12.6666667 Z M17.3333333,14.6666667 C15.12,14.6666667 13.3333333,16.4533333 13.3333333,18.6666667 C13.3333333,20.88 15.12,22.6666667 17.3333333,22.6666667 C19.5466667,22.6666667 21.3333333,20.88 21.3333333,18.6666667 C21.3333333,16.4533333 19.5466667,14.6666667 17.3333333,14.6666667 Z M17.3333333,16 C18.8,16 20,17.2 20,18.6666667 C20,20.1333333 18.8,21.3333333 17.3333333,21.3333333 C15.8666667,21.3333333 14.6666667,20.1333333 14.6666667,18.6666667 C14.6666667,17.2 15.8666667,16 17.3333333,16 Z M28.0265627,18.0265624 C27.6532293,18.0265624 27.359896,18.3198957 27.359896,18.6932291 C27.3332293,21.9998957 25.6801043,25.1197917 22.9067709,26.9864584 C22.6134376,27.1997917 22.5064584,27.5997917 22.7197917,27.9197917 C22.8531251,28.1064584 23.0668749,28.2135416 23.2802083,28.2135416 C23.4135416,28.2135416 23.5464584,28.1867709 23.6531251,28.1067709 C26.7997917,26.0001043 28.6932293,22.4798957 28.6932293,18.6932291 C28.6932293,18.3198957 28.399896,18.0265624 28.0265627,18.0265624 Z M19.7927083,28.3833333 C19.7466147,28.38448 19.6997917,28.39 19.6531251,28.4 C18.9064584,28.5866667 18.1066667,28.6666667 17.3333333,28.6666667 C16.96,28.6666667 16.6666667,28.96 16.6666667,29.3333333 C16.6666667,29.7066667 16.96,30 17.3333333,30 C18.2133333,30 19.1201043,29.8935413 19.9734376,29.680208 C20.3201043,29.600208 20.5602083,29.2268747 20.4802083,28.880208 C20.4102083,28.5768747 20.1153645,28.375312 19.7927083,28.3833333 Z"/>
</svg>
