<svg xmlns="http://www.w3.org/2000/svg" width="56" height="35" viewBox="0 0 56 35">
  <path fill="#231F20" fill-rule="evenodd" d="M1.97208122,13.0799045 C3.21991639,13.0799045 3.54493879,12.7807494 5.5917438,12.7807494 C7.11495969,12.7807494 7.56434757,13.0298716 7.56434757,13.8017336 L7.56434757,14.7977013 L4.2937444,14.7977013 C0.623395043,14.7977013 0,15.9932796 0,18.7320606 C0,22.1186636 1.17311138,22.6424457 5.3424903,22.6424457 C9.23753359,22.6424457 10.6353389,22.1186636 10.6353389,18.8321264 L10.6353389,14.1504005 C10.6353389,11.1129855 9.58659301,9.94190257 5.71715437,9.94190257 C1.22275306,9.94190257 0.748805614,10.4151306 0.748805614,11.6857582 C0.748805614,12.4826366 1.07278292,13.0799045 1.97208122,13.0799045 Z M7.56434757,18.981704 C7.56434757,19.6540213 6.96551209,19.8776059 5.31688564,19.8776059 C3.51985667,19.8776059 3.02030457,19.5789719 3.02030457,18.6580535 C3.02030457,17.6120529 3.36988653,17.4374589 4.89310242,17.4374589 L7.56434757,17.4374589 L7.56434757,18.981704 Z M24.9655867,12.8557988 C26.7636608,12.8557988 27.038519,13.2044657 27.038519,15.4700187 L27.038519,21.1722076 C27.038519,22.0936471 27.7126008,22.4673305 28.5612123,22.4673305 C29.4108689,22.4673305 30.1089878,22.0936471 30.1089878,21.1722076 L30.1089878,15.1969223 C30.1089878,10.5647081 28.8611526,9.94190257 24.9655867,9.94190257 C23.4183338,9.94190257 22.1198119,10.2905695 21.320842,10.7142857 C20.4722305,10.2665953 19.3242013,9.94190257 17.7252165,9.94190257 C13.8312183,9.94190257 12.5828606,10.5647081 12.5828606,15.1969223 L12.5828606,21.1722076 C12.5828606,22.0936471 13.282547,22.4673305 14.130636,22.4673305 C14.9797701,22.4673305 15.6538519,22.0936471 15.6538519,21.1722076 L15.6538519,15.4700187 C15.6538519,13.2044657 15.9281875,12.8557988 17.7252165,12.8557988 C19.3989251,12.8557988 19.7981487,13.2044657 19.7981487,14.8977672 L19.7981487,21.1722076 C19.7981487,22.0936471 20.4973126,22.4673305 21.3459242,22.4673305 C22.1945357,22.4673305 22.8936996,22.0936471 22.8936996,21.1722076 L22.8936996,15.1969223 C22.8936996,13.2044657 23.2438041,12.8557988 24.9655867,12.8557988 Z M34.0500149,13.0799045 C35.2978501,13.0799045 35.62235,12.7807494 37.6702001,12.7807494 C39.1928934,12.7807494 39.6417587,13.0298716 39.6417587,13.8017336 L39.6417587,14.7977013 L36.3722007,14.7977013 C32.7013288,14.7977013 32.0768886,15.9932796 32.0768886,18.7320606 C32.0768886,22.1186636 33.2510451,22.6424457 37.420424,22.6424457 C41.3154673,22.6424457 42.7132726,22.1186636 42.7132726,18.8321264 L42.7132726,14.1504005 C42.7132726,11.1129855 41.6645267,9.94190257 37.7945655,9.94190257 C33.3012093,9.94190257 32.8262168,10.4151306 32.8262168,11.6857582 C32.8262168,12.4826366 33.1507166,13.0799045 34.0500149,13.0799045 Z M39.5712153,18.981704 C39.5712153,19.6540213 38.9723798,19.8776059 37.3242759,19.8776059 C35.5267244,19.8776059 35.0276948,19.5789719 35.0276948,18.6580535 C35.0276948,17.6120529 35.3772768,17.4374589 36.8999701,17.4374589 L39.5712153,17.4374589 L39.5712153,18.981704 Z M52.9535682,10.1665295 C52.280009,10.0414472 51.2563452,9.94190257 50.2577635,9.94190257 C46.1881905,9.94190257 44.6654972,10.3155859 44.6654972,13.8762618 L44.6654972,23.2391925 C44.6654972,26.4522438 46.437444,27 50.3079277,27 C54.451702,27 56,26.2276169 56,22.9405585 C56,20.2512892 54.9512541,19.1307604 51.3817557,19.1307604 L47.5619588,19.1307604 L47.5619588,18.0602644 C48.2846372,18.1843044 49.184458,18.1843044 50.2577635,18.1843044 C54.3518961,18.1843044 55.8495073,17.5370035 55.8495073,14.1504005 L55.8495073,9.22059469 C55.8495073,8.34866689 55.2005076,8 54.4266199,8 C53.6025679,8 52.9535682,8.34866689 52.9535682,9.22059469 L52.9535682,10.1665295 Z M50.2530606,15.4700187 C47.831069,15.4700187 47.5567334,15.3709952 47.5567334,14.1003676 L47.5567334,14.0013441 C47.5567334,12.9058317 48.2558973,12.6812047 50.2530606,12.6812047 C51.1267543,12.6812047 52.2005823,12.7562541 52.9483428,12.8557988 L52.9483428,13.8762618 C52.9483428,15.1463682 52.6489251,15.4700187 50.2530606,15.4700187 Z M47.552553,21.720485 L50.7735145,21.720485 C52.4210958,21.720485 53.1442968,21.9941025 53.1442968,23.0661619 C53.1442968,24.0610873 52.2465661,24.3107307 50.3236041,24.3107307 C48.5265751,24.3107307 47.552553,24.0861038 47.552553,23.2647301 L47.552553,21.720485 Z"/>
</svg>
