<svg xmlns="http://www.w3.org/2000/svg" width="36" height="36" viewBox="0 0 36 36">
  <path fill="#015" d="M18.5,0 C16.8338462,0 15.3430769,0.782273964 14.4076923,2.11561568 C14.32,2.23155844 14.2615385,2.37660011 14.2615385,2.52152856 L14.2615385,20.0578707 L12.6538462,20.0578707 C10.6369231,20.0578707 9,21.6810694 9,23.6810819 L9,32.3767888 C9,34.3768014 10.6369231,36 12.6538462,36 L24.3461538,36 C26.3630769,36 28,34.3768014 28,32.3767888 L28,23.6810819 C28,21.6810694 26.3630769,20.0578707 24.3461538,20.0578707 L22.7384615,20.0578707 L22.7384615,2.52152856 C22.7384615,2.37660011 22.68,2.23155844 22.5923077,2.11561568 C21.6276923,0.782273964 20.1369231,0 18.5,0 Z M17.7692308,1.50702942 L17.7692308,4.49278182 C17.0969231,4.72466734 16.6,5.36212613 16.6,6.14473975 C16.6,6.89836768 17.0969231,7.53582647 17.7692308,7.79669768 L17.7692308,8.8695079 C17.0969231,9.10139342 16.6,9.73885192 16.6,10.5214655 C16.6,11.2750935 17.0969231,11.9131184 17.7692308,12.1739896 L17.7692308,14.6955182 C17.0969231,14.9274037 16.6,15.5648625 16.6,16.3474761 C16.6,17.1300897 17.0969231,17.7391289 17.7692308,18.0000001 L17.7692308,18.7535147 C17.7692308,19.1593144 18.0907692,19.4781569 18.5,19.4781569 C18.9092308,19.4781569 19.2307692,19.1593144 19.2307692,18.7535147 L19.2307692,17.3042302 C19.2307692,16.8984306 18.9092308,16.579588 18.5,16.579588 L18.3538462,16.579588 C18.1784615,16.579588 18.0615385,16.4636452 18.0615385,16.2897311 C18.0615385,16.115817 18.1784615,15.9998742 18.3538462,15.9998742 L18.5,15.9998742 C18.9092308,15.9998742 19.2307692,15.6810316 19.2307692,15.275232 L19.2307692,11.5070923 C19.2307692,11.1012927 18.9092308,10.7824501 18.5,10.7824501 L18.3538462,10.7824501 C18.1784615,10.7824501 18.0615385,10.6665073 18.0615385,10.4925932 C18.0615385,10.318679 18.1784615,10.2027363 18.3538462,10.2027363 L18.5,10.2027363 C18.9092308,10.2027363 19.2307692,9.8838937 19.2307692,9.47809405 L19.2307692,7.15923889 C19.2307692,6.75343923 18.9092308,6.43459665 18.5,6.43459665 L18.3538462,6.43459665 C18.1784615,6.43459665 18.0615385,6.31865389 18.0615385,6.14473975 C18.0615385,5.97082561 18.1784615,5.85488286 18.3538462,5.85488286 L18.5,5.85488286 C18.9092308,5.85488286 19.2307692,5.53604027 19.2307692,5.13024062 L19.2307692,1.50702942 C20.0492308,1.68094356 20.7507692,2.08696965 21.2769231,2.75364045 L21.2769231,20.0578707 L15.7230769,20.0578707 L15.7230769,2.75364045 C16.2492308,2.11595537 16.9507692,1.68094356 17.7692308,1.50702942 Z M12.6538462,21.5071552 L24.3461538,21.5071552 C25.5446154,21.5071552 26.5384615,22.4926687 26.5384615,23.6810819 L26.5384615,32.3767888 C26.5384615,33.5652021 25.5446154,34.5507155 24.3461538,34.5507155 L12.6538462,34.5507155 C11.4553846,34.5507155 10.4615385,33.5652021 10.4615385,32.3767888 L10.4615385,23.6810819 C10.4615385,22.4926687 11.4553846,21.5071552 12.6538462,21.5071552 Z M15.5769231,28.7535776 C15.1676923,28.7535776 14.8461538,29.0724202 14.8461538,29.4782198 L14.8461538,32.3767888 C14.8461538,32.7825885 15.1676923,33.101431 15.5769231,33.101431 L21.4230769,33.101431 C21.8323077,33.101431 22.1538462,32.7825885 22.1538462,32.3767888 L22.1538462,29.4782198 C22.1538462,29.0724202 21.8323077,28.7535776 21.4230769,28.7535776 L15.5769231,28.7535776 Z M16.3076923,30.2028621 L20.6923077,30.2028621 L20.6923077,31.6521466 L16.3076923,31.6521466 L16.3076923,30.2028621 Z"/>
</svg>
