<svg xmlns="http://www.w3.org/2000/svg" width="36" height="36" viewBox="0 0 36 36">
  <path fill="#015" d="M11.088,8.00026676 C10.3896,8.0073723 9.69131261,8.15625564 9.04331261,8.44047744 L3.11062493,11.1122735 C1.20982499,11.8512502 0,13.6418475 0,15.6598223 L0,27.5971378 C0,27.9950483 0.3168,28.3076923 0.72,28.3076923 L20.8513126,28.3076923 L20.88,28.3076923 C21.0816,28.3076923 21.2546249,28.2222041 21.3986249,28.0800932 L33.7533754,16.7400871 C33.9837754,16.5411318 34.0418246,16.2281547 33.9266246,15.9723551 C33.8114246,15.6881333 33.552,15.5177114 33.264,15.5177114 L31.824,15.5177114 C31.7088,15.5177114 31.5938246,15.5463555 31.4786246,15.6031999 L21.6,20.7475036 L21.6,16.2282659 C21.6,15.8303553 21.2832,15.5177114 20.88,15.5177114 L17.4526874,15.5177114 L15.8973751,11.3964953 C15.4365751,10.0606528 14.4286874,8.98060999 13.1326874,8.41216639 C12.4846874,8.12794459 11.7864,7.99316121 11.088,8.00026676 Z M11.0486249,9.42470655 C11.5490249,9.42115377 12.0528,9.52052027 12.528,9.71947553 C13.4496,10.117386 14.1697126,10.8846741 14.5153126,11.8794504 L15.8973751,15.5177114 L1.44,15.5177114 C1.4976,14.1534467 2.36137501,12.9311819 3.65737507,12.4195826 L3.68662493,12.4195826 L9.59062493,9.74778686 C10.0514249,9.53462052 10.5482249,9.42825932 11.0486249,9.42470655 Z M1.44,16.9105093 L20.16,16.9105093 L20.16,21.8843905 L20.16,21.9127018 L20.16,26.858272 L1.44,26.858272 L1.44,16.9105093 Z M30.672,17.6210638 L21.6,25.9484297 L21.6,22.3390345 L30.672,17.6210638 Z M33.0913123,21.173836 C32.8321123,21.173836 32.6013754,21.2874139 32.4573754,21.4863691 L32.4286877,21.5146805 L30.7586246,23.7035209 C30.7586246,23.731943 30.7293754,23.7317213 30.7293754,23.7601435 C30.3837754,24.2433206 30.2113123,24.8119859 30.2113123,25.4088517 C30.2113123,27.0004937 31.5072,28.279381 33.12,28.279381 C34.6752,28.3078032 36,27.0288051 36,25.437163 C36,24.8402972 35.8270877,24.2716319 35.4526877,23.7884549 L35.4526877,23.7601435 C35.4526877,23.7601435 35.4528,23.7318322 35.424,23.7318322 L33.7533754,21.5146805 C33.7533754,21.5146805 33.7534877,21.4863691 33.7246877,21.4863691 C33.5518877,21.2874139 33.3217123,21.173836 33.0913123,21.173836 Z M33.12,23.0212777 L34.3293754,24.5844976 C34.5021754,24.8402972 34.5886877,25.1246299 34.5886877,25.4088517 C34.5886877,26.2046727 33.9264,26.858272 33.12,26.858272 C32.2848,26.8866942 31.6226246,26.232984 31.6226246,25.437163 C31.6226246,25.1529412 31.7085754,24.8684977 31.8813754,24.6411203 C31.8813754,24.6411203 31.8818246,24.6128089 31.9106246,24.6128089 L33.12,23.0212777 Z"/>
</svg>
