<svg width="119" height="53" xmlns="http://www.w3.org/2000/svg"><g fill="none" fill-rule="evenodd"><path d="M8.67279189 46.2675553c-.90585076 0-1.65455291.0554594-2.24612892.1663799-.59157601.1109205-1.05835945.2588123-1.40036433.4436798-.34200488.1848675-.57770741.4067051-.70711466.6655196-.12940725.2588146-.1941099.5268684-.1941099.8041697 0 .4621687.1525134.845763.45754478 1.1507944.30503137.3050314.70711216.4575448 1.20625442.4575448.443682 0 .84114117-.097054 1.19238942-.2911649.35124826-.1941108.65165344-.4436782.90122457-.7487096.24957113-.3050314.44367909-.6516528.58232972-1.0398745.13865063-.3882218.2079749-.7856809.2079749-1.1923894v-.4159498zm.27729987 6.128327c0-.4067085.00924323-.8041677.02772998-1.1923894.01848675-.3882218.05545966-.7671945.11091996-1.1369295l-.02773-.02773c-.3327615.7764436-.89197731 1.4096053-1.67766419 1.8995041-.78568688.4898989-1.69614568.7348447-2.73140369.7348447-1.25709901 0-2.22763884-.3743511-2.9116486-1.1230645-.68400976-.7487134-1.02600951-1.6869019-1.02600951-2.8145936 0-.813417.18948635-1.5205246.56846473-2.121344.37897838-.6008194.9150861-1.0999542 1.60833923-1.4974193.69325313-.3974651 1.52976603-.6932487 2.50956379-.8873596.97979776-.1941108 2.07049967-.2911648 3.27213843-.2911648v-.4991398c0-.9058507-.19872958-1.5343908-.59619471-1.8856391-.39746513-.3512482-1.02138359-.5268697-1.8717741-.5268697-.62854951 0-1.34027872.0924323-2.13520898.2772998-.79493026.1848675-1.46968652.4159485-2.02428903.6932497l-.58232972-2.7452687c.70249651-.2588145 1.51590132-.4806521 2.44023883-.6655196.92433751-.1848676 1.83941792-.2772999 2.74526868-.2772999 1.09071827 0 1.9873122.1062972 2.68980874.3188948.7024965.2125977 1.2663339.5222461 1.6915292.9289546.4251952.4067085.730222.9104649.9150895 1.5112843.1848675.6008193.2772999 1.2986837.2772999 2.093614v5.6846472c0 .5546025.0092432 1.1323048.02773 1.7331242.0184867.6008194.0462164 1.2062514.0831899 1.8163141H8.95009176zm15.06332504 0c0-.3142747.0092432-.7117339.0277299-1.1923894.0184868-.4806555.064703-.9058444.13865-1.2755794h-.02773c-.4251953.813417-1.0260056 1.4743084-1.8024491 1.982694-.7764436.5083857-1.7377402.7625747-2.8839187.7625747-.7764435 0-1.4280916-.1155405-1.954964-.3466249-.5268724-.2310843-.9474397-.5453544-1.2617144-.9428195-.3142748-.3974651-.5407341-.859627-.6793847-1.3864993-.1386506-.5268724-.2079749-1.0953315-.2079749-1.7053942v-9.6777654h3.5217083v8.8181358c0 .7024965.1201621 1.2570907.3604898 1.6637992.2403278.4067085.6932464.6100597 1.3587694.6100597.443682 0 .8642493-.1201621 1.2617144-.3604898.3974651-.2403278.7348432-.5592194 1.0121445-.9566846.2773013-.3974651.4991389-.8642485.6655197-1.4003643.1663807-.5361157.2495699-1.1091964.2495699-1.7192592v-6.6551968h3.5494383v13.7818034h-3.3275984zm14.0373154-.1109199c-.443682.1109205-.9335735.2033528-1.4696893.2772998-.5361157.073947-1.0444937.11092-1.5251492.11092-.7579568 0-1.3957401-.0739459-1.9133691-.2218399-.517629-.147894-.928953-.3928398-1.2339844-.7348447-.3050314-.3420048-.5222474-.7856802-.6516547-1.3310393-.1294072-.5453591-.1941099-1.224737-.1941099-2.038154v-6.9879567h-2.3847789v-2.7452687h2.3847789V34.371391l3.5217083-.9428196v5.1855075h3.3553284v2.7452687h-3.3553284v6.0451371c0 .887364.1201621 1.4881744.3604898 1.8024491.2403278.3142748.6655167.4714098 1.2755794.4714098.6100628 0 1.1369273-.0647026 1.5806093-.1941099l.2495698 2.8007287zm10.7374471-6.8493067c0-1.3310461-.2403241-2.3478021-.7209796-3.0502986-.4806555-.7024965-1.2478442-1.0537395-2.3015889-1.0537395-.3882218 0-.7718161.0785675-1.1507945.2357049-.3789784.1571374-.7163565.4020832-1.0121445.7348447-.295788.3327615-.5314905.7533287-.7071147 1.2617144-.1756241.5083856-.2634348 1.1138176-.2634348 1.8163141 0 2.8469595 1.0259992 4.2704179 3.0780285 4.2704179.887364 0 1.6222013-.351243 2.2045339-1.0537395.5823327-.7024965.8734946-1.7562254.8734946-3.1612184zm3.6603583-.1941099c0 1.0907182-.1709999 2.0889878-.5130048 2.9948385-.3420049.9058508-.8272748 1.6869043-1.4558243 2.3431839-.6285495.6562796-1.37263 1.1692792-2.2322639 1.5390142-.8596339.3697351-1.8070657.5545998-2.8423237.5545998-.9797977 0-1.8671484-.1294053-2.6620787-.3882198-.7949302-.2588145-1.4696865-.6701386-2.024289-1.2339844-.5546025-.5638459-.984413-1.2848184-1.2894444-2.162939-.3050314-.8781206-.4575448-1.927228-.4575448-3.1473535 0-1.0722315.1709999-2.0612578.5130048-2.9671086.3420049-.9058507.8226532-1.6869042 1.4419593-2.3431838.6193061-.6562797 1.358765-1.1692793 2.2183989-1.5390143.8596339-.369735 1.8163089-.5545997 2.8700536-.5545997 1.9595956 0 3.5217025.5592158 4.6863678 1.6776642 1.1646653 1.1184484 1.7469892 2.8607984 1.7469892 5.2271025zm12.5676261 1.8579091c0 .813417-.157135 1.5574975-.4714097 2.2322639-.3142748.6747664-.7625718 1.2570903-1.3449044 1.7469891-.5823326.4898989-1.2894402.8688716-2.121344 1.1369295-.8319037.2680579-1.7562274.4020848-2.7729986.4020848-.7209833 0-1.4234693-.0462162-2.107479-.1386499-.6840098-.0924338-1.3033066-.2218391-1.8579091-.3882198l.3050298-1.7469892c.591576.221841 1.2108729.3974625 1.8579091.5268697.6470363.1294073 1.2940628.19411 1.9410991.19411.6285495 0 1.2293599-.0693243 1.8024491-.2079749.5730893-.1386507 1.0722241-.3558667 1.4974193-.6516547.4251953-.295788.767195-.6793823 1.0260095-1.1507945.2588145-.4714121.3882198-1.0491144.3882198-1.7331241 0-.7764436-.2218376-1.3957404-.6655196-1.8579092-.443682-.4621687-.9936546-.8550063-1.6499343-1.1785244-.6562796-.3235181-1.3680088-.6239233-2.1352089-.9012246-.7672002-.2773012-1.4789294-.6146793-2.135209-1.0121445-.6562796-.3974651-1.2062522-.8919782-1.6499342-1.4835543-.443682-.591576-.6655197-1.3772511-.6655197-2.3570488 0-.7209833.1340269-1.3911179.4020848-2.0104241.2680579-.6193061.6655171-1.1554138 1.1923894-1.6083392.5268724-.4529254 1.173899-.80879 1.9410991-1.0676045.7672001-.2588145 1.6499292-.3882198 2.6482137-.3882198.5730893 0 1.1507916.0323513 1.7331242.097055.5823326.0647036 1.123062.1525143 1.6222042.2634348l-.2218399 1.6083393c-.4991422-.147894-1.0306283-.2680561-1.5944742-.3604899-.5638459-.0924337-1.1138184-.1386499-1.6499342-.1386499-1.4419665 0-2.514182.3096484-3.2166785.9289546-.7024965.6193061-1.0537395 1.4465758-1.0537395 2.4818338 0 .7579567.2218377 1.3633887.6655197 1.8163141.443682.4529254.9982762.8411413 1.6637992 1.1646594.665523.3235182 1.3818739.6239234 2.149074.9012246.7672001.2773013 1.483551.6146794 2.149074 1.0121445.665523.3974651 1.2201172.8965999 1.6637992 1.4974193.443682.6008194.6655196 1.3911161.6655196 2.3709139zm11.5416167-3.4662484c0-1.1461785-.31427-2.0751238-.9428195-2.7868636-.6285495-.7117399-1.4974138-1.0676045-2.6066188-1.0676045-1.0167712 0-1.8717706.3419997-2.5650237 1.0260095-.6932532.6840097-1.1415501 1.6822793-1.3449044 2.9948385h7.4593664v-.1663799zm1.8579091.3050299v.3882198c0 .1663807-.0184864.4344346-.0554599.8041696h-9.3450055c-.0369735.961311.0369723 1.8347969.2218398 2.6204837.1848675.7856869.4760295 1.4280919.8734946 1.9272341.3974652.4991423.9012215.8642501 1.5112843 1.0953345.6100628.2310844 1.321792.3466248 2.135209.3466248.665523 0 1.331036-.0693242 1.996559-.2079749.665523-.1386506 1.2940631-.3373802 1.8856391-.5961947l.3327599 1.4696893c-.6470363.2588145-1.3587655.4621657-2.135209.6100597-.7764435.147894-1.5990916.2218399-2.4679688.2218399-2.0150558 0-3.5540547-.568459-4.6170428-1.7053942-1.0629882-1.1369351-1.5944743-2.9255014-1.5944743-5.3657524 0-1.0167713.134027-1.964203.4020849-2.8423236.2680578-.8781207.6608954-1.6360661 1.1785244-2.2738589.517629-.6377929 1.1415475-1.1369277 1.8717741-1.4974193.7302266-.3604916 1.5667395-.5407348 2.5095638-.5407348.9428242 0 1.7469858.1478918 2.4125088.4436798.665523.295788 1.2154956.7071121 1.6499342 1.2339844.4344387.5268724.7487087 1.1184396.9428196 1.7747192.1941109.6562796.2911648 1.354144.2911648 2.093614zm12.3180563 8.4576459v-8.9290557c0-1.1461785-.1987295-2.0427724-.5961947-2.6898087-.3974651-.6470363-1.1323024-.9705495-2.2045339-.9705495-.6470363 0-1.243225.1478917-1.7885841.4436798-.5453592.295788-1.0121426.7117336-1.4003644 1.2478494-.3882217.5361157-.6932485 1.173899-.9150895 1.913369-.221841.73947-.3327599 1.5436316-.3327599 2.4125089v6.5720068h-1.7469891V38.6140789h1.7747191c0 .4806555-.0184865 1.0306281-.05546 1.6499342-.0369735.6193062-.1016761 1.141549-.1941099 1.5667443l.05546.02773c.3882218-1.0537448 1.0121402-1.8948793 1.8717741-2.5234288.8596339-.6285495 1.899498-.9428196 3.1196235-.9428196.7949303 0 1.4604433.1155405 1.996559.3466249.5361158.2310844.9613047.5453544 1.2755794.9428195.3142748.3974652.5407341.8642486.6793847 1.4003644.1386506.5361157.2079749 1.1091964.2079749 1.7192591v9.5945754h-1.7469892zm14.0373152-4.048578c0 .591576-.129405 1.1461702-.388219 1.6637992-.258815.517629-.628544.9705476-1.1092 1.3587693-.480655.3882218-1.072223.6932486-1.774719.9150896-.702497.221841-1.497415.3327598-2.384779.3327598-.5361157 0-1.076845-.0277297-1.6222042-.08319-.5453591-.0554602-1.030629-.1478926-1.4558243-.2772998l.2495699-1.6637992c.443682.1663807.9428168.295786 1.4974193.3882198.5546025.0924337 1.0999535.1386499 1.6360693.1386499 1.035258 0 1.885636-.2264593 2.551159-.6793846.665523-.4529254.998279-1.0676006.998279-1.8440442 0-.591576-.171-1.0444946-.513005-1.3587693-.342004-.3142748-.771815-.5638421-1.289444-.7487096-.517629-.1848675-1.081466-.3512458-1.691529-.4991398-.6100629-.147894-1.1739003-.3558668-1.6915293-.6239247-.517629-.2680579-.9474395-.6331657-1.2894444-1.0953345-.3420049-.4621687-.5130047-1.1091953-.5130047-1.941099 0-1.1461786.4390537-2.0889887 1.3171743-2.8284587.8781207-.73947 2.1767951-1.1091995 3.8960631-1.1091995.443682 0 .910466.0277298 1.400364.08319.489899.0554603.947439.1294061 1.372635.2218399l-.22184 1.4974193c-.425195-.1294073-.878114-.2310829-1.35877-.3050299-.480655-.073947-.961303-.1109199-1.441959-.1109199-1.072231 0-1.871771.2125944-2.3986437.6377897-.5268724.4251952-.7903046.9982759-.7903046 1.7192591 0 .5915761.1709999 1.0444946.5130048 1.3587694.3420048.3142747.7764365.5684637 1.3033095.7625746.526872.1941109 1.09071.3651108 1.691529.5130048.600819.147894 1.164657.3512452 1.691529.6100597.526873.2588145.961305.6193007 1.30331 1.0814695.342004.4621687.513004 1.0907088.513004 1.8856391zm11.513887-4.7140978c0-1.1461785-.31427-2.0751238-.94282-2.7868636-.628549-.7117399-1.497413-1.0676045-2.606618-1.0676045-1.016772 0-1.871771.3419997-2.565024 1.0260095-.693253.6840097-1.14155 1.6822793-1.344904 2.9948385h7.459366v-.1663799zm1.857909.3050299v.3882198c0 .1663807-.018486.4344346-.05546.8041696h-9.345005c-.036974.961311.036972 1.8347969.22184 2.6204837.184867.7856869.476029 1.4280919.873494 1.9272341.397465.4991423.901222.8642501 1.511284 1.0953345.610063.2310844 1.321792.3466248 2.135209.3466248.665523 0 1.331036-.0693242 1.996559-.2079749.665523-.1386506 1.294064-.3373802 1.88564-.5961947l.332759 1.4696893c-.647036.2588145-1.358765.4621657-2.135209.6100597-.776443.147894-1.599091.2218399-2.467968.2218399-2.015056 0-3.554055-.568459-4.617043-1.7053942-1.062988-1.1369351-1.594474-2.9255014-1.594474-5.3657524 0-1.0167713.134026-1.964203.402084-2.8423236.268058-.8781207.660896-1.6360661 1.178525-2.2738589.517629-.6377929 1.141547-1.1369277 1.871774-1.4974193s1.566739-.5407348 2.509564-.5407348c.942824 0 1.746986.1478918 2.412509.4436798.665523.295788 1.215495.7071121 1.649934 1.2339844.434438.5268724.748708 1.1184396.942819 1.7747192.194111.6562796.291165 1.354144.291165 2.093614z" fill="#001155"/><g fill="#653FB6" fill-rule="nonzero"><path d="M84.8494378 10.79531C78.2336188 4.17728167 69.3103736.3938224 59.8003376.3938224c-9.6528424 0-18.69847841 3.89852108-25.33752795 10.6933277-1.05995649 1.0848239-1.04664422 2.8302542.02973378 3.8985277 1.076378 1.0682734 2.80821928 1.0548567 3.86817576-.0299671C43.981773 9.20278273 51.6281117 5.90733591 59.8003376 5.90733591c8.0514389 0 15.5940925 3.19808791 21.1953084 8.80117439 1.0721875 1.0725454 2.8040678 1.0660156 3.868263-.0145848s1.0577163-2.82607-.0144712-3.8986155z"/><path d="M78.7680657 16.919237c-5.0137763-5.0021553-11.7699799-7.86132194-18.9677281-7.86132194-7.3141652 0-14.170148 2.95284904-19.20303222 8.09898284-1.06046075 1.0843231-1.04796002 2.8297595.02792117 3.8985412 1.07588119 1.0687817 2.80772855 1.0561829 3.86818925-.0281402 4.0150186-4.1053642 9.4724697-6.4558703 15.3069218-6.4558703 5.7417071 0 11.1194959 2.2758334 15.1190926 6.2661599 1.0735988 1.0711104 2.805469 1.0622641 3.8682404-.0197588 1.0627713-1.0820228 1.0539939-2.8274823-.0196049-3.8985927z"/><path d="M72.1682539 22.7771236c-3.2690488-3.2602453-7.6757405-5.1246139-12.3679163-5.1246139-4.7981967 0-9.2956451 1.9499282-12.5815925 5.3414013-1.0554167 1.0893105-1.0348153 2.8346689.0460145 3.8983669 1.0808298 1.0636981 2.8125997 1.0429351 3.8680163-.0463755 2.2668175-2.3396145 5.358096-3.6798792 8.6675617-3.6798792 3.2364968 0 6.2650823 1.2813239 8.520012 3.5301812 1.0737987 1.0709069 2.8056672 1.0617324 3.8682366-.0204918 1.0625694-1.0822243 1.0534664-2.827682-.0203323-3.898589z"/></g></g></svg>