<svg xmlns="http://www.w3.org/2000/svg" width="40" height="40" viewBox="0 0 40 40">
  <g fill="#653FB6" fill-rule="evenodd" transform="translate(0 6)">
    <path d="M28.678865,21.8581403 C28.295692,22.2489345 27.775742,22.468517 27.233552,22.468517 C26.691362,22.468517 26.171412,22.2489345 25.7882391,21.8581403 C24.2557543,20.296556 22.177049,19.419237 20.0095408,19.419237 C17.8420327,19.419237 15.7633273,20.296556 14.2308426,21.8581403 C13.7117451,22.3888328 12.9541706,22.5970834 12.2434901,22.4044463 C11.5328096,22.2118092 10.9769924,21.6475504 10.7854094,20.9242209 C10.5938264,20.2008913 10.7955836,19.4283819 11.3146811,18.8976894 C13.6145391,16.5465459 16.7386212,15.225 19.996773,15.225 C23.2549249,15.225 26.3790069,16.5465459 28.678865,18.8976894 C29.0671772,19.2886624 29.2857143,19.8217175 29.2857143,20.3779149 C29.2857143,20.9341123 29.0671772,21.4671674 28.678865,21.8581403 Z"/>
    <path d="M33.7052682,16.0692688 C33.3324642,16.4570887 32.8265843,16.675 32.2990663,16.675 C31.7715483,16.675 31.2656684,16.4570887 30.8928644,16.0692688 C24.87741,9.8186566 15.1246118,9.8186566 9.10915739,16.0692688 C8.33253353,16.8762755 7.07337747,16.8762755 6.29675361,16.0692688 C5.52012975,15.2622621 5.52012975,13.9538458 6.29675361,13.1468391 C13.8643817,5.28438698 26.1326712,5.28438698 33.7002993,13.1468391 C34.0741777,13.5335422 34.2847792,14.0588281 34.2857112,14.6069837 C34.2866432,15.1551394 34.0778293,15.6811953 33.7052682,16.0692688 Z"/>
    <path d="M37.9681686,11.6 C37.428653,11.6 36.9112676,11.3836256 36.5299847,10.9985407 C27.395187,1.80397207 12.6068807,1.80397207 3.472083,10.9985407 C2.67779597,11.799856 1.39000228,11.7998559 0.595715272,10.9985407 C-0.19857174,10.1972254 -0.19857176,8.8980367 0.595715229,8.09672142 C11.3197317,-2.69890714 28.6823361,-2.69890714 39.4063525,8.09672142 C39.787387,8.48205803 40.00095,9.00440393 39.9999968,9.54869372 C39.9990436,10.0929835 39.7836523,10.6145648 39.4012706,10.9985407 C39.0250696,11.3836256 38.5076843,11.6 37.9681686,11.6 Z"/>
    <path d="M22.0206101,28.15024 C21.2035409,28.9797915 19.9745651,29.2280565 18.9068181,28.779256 C17.839071,28.3304556 17.1428571,27.2729859 17.1428571,26.1 C17.1428571,24.9270141 17.839071,23.8695444 18.9068181,23.420744 C19.9745651,22.9719435 21.2035409,23.2202085 22.0206101,24.04976 C23.1359871,25.1821764 23.1359871,27.0178236 22.0206101,28.15024 Z"/>
  </g>
</svg>
