<svg xmlns="http://www.w3.org/2000/svg" width="32" height="23" viewBox="0 0 32 23">
  <g fill="#015">
    <path d="M22.4098435,16.8083709 C22.5827495,16.635759 22.6785714,16.4040454 22.6785714,16.1617946 C22.6785714,15.9195438 22.5827495,15.6878301 22.4092217,15.5145887 C20.7100673,13.7925188 18.4030029,12.825 15.9974184,12.825 C13.591834,12.825 11.2847695,13.7925188 9.58562481,15.514579 C9.35738238,15.745908 9.26820407,16.0844198 9.3529136,16.4014871 C9.43720055,16.7169726 9.68034433,16.9616812 9.98942953,17.0447396 C10.2969288,17.1273719 10.6248549,17.0380049 10.8516588,16.8081352 C12.2183142,15.4275342 14.0731125,14.6514639 16.0076326,14.6514639 C17.9421528,14.6514639 19.7969511,15.4275342 21.1638397,16.8083709 C21.3296927,16.9760645 21.5537186,17.0698583 21.7868416,17.0698583 C22.0199646,17.0698583 22.2439905,16.9760645 22.4098435,16.8083709 Z"/>
    <path d="M26.67857,11.5861355 C26.6781579,11.345806 26.5855475,11.116807 26.4221302,10.9492385 C20.6626095,5.01692049 11.3350328,5.01692049 5.57555311,10.9491963 C5.23672039,11.2982495 5.23672039,11.8731464 5.57555311,12.2221996 C5.902262,12.5587633 6.4224668,12.5587633 6.74918308,12.222192 C11.8561353,6.96134391 20.1454821,6.96134391 25.2527321,12.2224989 C25.4103141,12.3850148 25.6210307,12.475 25.839253,12.475 C26.0573967,12.475 26.2680402,12.3850797 26.4256036,12.2226745 C26.5872061,12.0557001 26.6789821,11.8264013 26.67857,11.5861355 Z"/>
    <path d="M30.3745349,8.45 C30.6065136,8.45 30.8276367,8.35808301 30.9918804,8.1914592 C31.1567257,8.02735366 31.2495877,7.80442198 31.2499986,7.57177703 C31.2504096,7.33913197 31.1583357,7.11587328 30.9952832,6.9523985 C22.7088413,-1.31746617 9.29281291,-1.31746617 1.00694246,6.95182757 C0.664352506,7.29446945 0.664352515,7.85004875 1.00694248,8.19269063 C1.34946969,8.53526974 1.90476894,8.53526975 2.24790306,8.19208435 C9.84850434,0.607701874 22.1531499,0.607701874 29.7546529,8.19298576 C29.9190028,8.35754351 30.1420033,8.45 30.3745349,8.45 Z"/>
    <path d="M17.0844364,19.6025504 C16.645461,19.1607109 15.9865681,19.0287557 15.4139364,19.267372 C14.8396958,19.5066588 14.4642857,20.0719484 14.4642857,20.7 C14.4642857,21.3280516 14.8396958,21.8933412 15.4139364,22.132628 C15.9865681,22.3712443 16.645461,22.2392891 17.0844364,21.7974496 C17.6861402,21.1918199 17.6861402,20.2081801 17.0844364,19.6025504 Z"/>
  </g>
</svg>
