<svg xmlns="http://www.w3.org/2000/svg" width="36" height="36" viewBox="0 0 36 36">
  <path fill="#015" fill-rule="evenodd" d="M16.0282,28.3489 C14.8992,28.3489 13.9812,27.4279 13.9812,26.2959 C13.9812,25.1639 14.8992,24.2419 16.0282,24.2419 C17.1952,24.2419 18.0752,25.1249 18.0752,26.2959 C18.0752,27.4279 17.1562,28.3489 16.0282,28.3489 Z M8.1892,28.3489 C7.0602,28.3489 6.1422,27.4279 6.1422,26.2959 C6.1422,25.1639 7.0602,24.2419 8.1892,24.2419 C9.3172,24.2419 10.2352,25.1639 10.2352,26.2959 C10.2352,27.4279 9.3172,28.3489 8.1892,28.3489 Z M13.9612,19.7369 L5.7502,8.0739 L5.8842,7.8889 L19.5042,19.7369 L13.9612,19.7369 Z M28.4592,17.2339 C27.8442,17.2339 27.3612,16.7499 27.3612,16.1329 L27.3612,15.0809 C27.3612,14.4629 27.8442,13.9799 28.4592,13.9799 L30.3772,13.9799 L32.6712,17.2339 L28.4592,17.2339 Z M28.4592,12.3779 C27.0272,12.3779 25.8622,13.5459 25.8622,14.9809 L25.8622,16.0319 C25.8622,17.4679 27.0272,18.6359 28.4592,18.6359 L33.7152,18.6359 L33.9512,19.0089 L33.9512,23.2419 C33.9512,24.2079 33.1682,24.9939 32.2042,24.9939 L31.9292,24.9939 C31.3862,23.6399 30.0942,22.7409 28.6592,22.7409 C27.1982,22.7409 25.8782,23.6589 25.3842,24.9939 L19.2972,24.9939 C18.7552,23.6399 17.4632,22.7409 16.0282,22.7409 C14.5942,22.7409 13.3022,23.6399 12.7592,24.9939 L11.5082,24.9939 C10.9662,23.6399 9.6732,22.7409 8.2392,22.7409 C6.8042,22.7409 5.5122,23.6399 4.9702,24.9939 L4.5942,24.9939 C3.5302,24.9939 2.6972,24.1579 2.6972,23.0919 C2.6972,22.0249 3.5302,21.1889 4.5942,21.1889 L23.3662,21.1889 C23.8012,21.1889 24.1162,20.8729 24.1162,20.4389 L24.1162,11.6259 L28.7802,11.6259 L29.3202,12.3779 L28.4592,12.3779 Z M30.6562,26.2959 C30.6562,27.4279 29.7382,28.3489 28.6092,28.3489 C27.4802,28.3489 26.5622,27.4279 26.5622,26.2959 C26.5622,25.1639 27.4802,24.2419 28.6092,24.2419 C29.7382,24.2419 30.6562,25.1639 30.6562,26.2959 Z M35.2772,18.4089 L29.7632,10.4329 C29.6332,10.2349 29.4172,10.1249 29.1582,10.1249 L23.3662,10.1249 C22.9262,10.1249 22.6172,10.4339 22.6172,10.8759 L22.6172,19.6879 L21.8132,19.6879 L6.2562,6.1809 C6.1462,6.0699 5.9792,5.9999 5.8112,5.9999 C5.7582,5.9999 5.7042,6.0069 5.6512,6.0219 C5.4222,6.0369 5.2752,6.1839 5.1662,6.2929 L4.1952,7.5699 L1.2442,11.7329 C1.1482,11.9859 1.1482,12.1199 1.1482,12.2279 L1.1482,14.6809 C1.1482,15.2969 1.5172,15.8349 2.0682,16.0199 C2.1692,16.0599 2.3252,16.2229 2.2572,16.4649 C2.2262,16.5829 2.0962,16.7139 1.9862,16.7409 C1.8012,16.7529 1.7122,16.7259 1.6372,16.6759 C1.5562,16.6219 1.4992,16.4989 1.4992,16.3829 C1.4992,15.9479 1.1832,15.6319 0.7492,15.6319 C0.3082,15.6319 0.000200000002,15.9409 0.000200000002,16.3829 C0.000200000002,16.9619 0.2872,17.5369 0.7492,17.8839 C1.1442,18.1499 1.5382,18.2849 1.8972,18.2849 C2.0572,18.2849 2.2382,18.2849 2.4272,18.2219 C3.0452,18.0529 3.5642,17.5319 3.7362,16.8989 C3.9642,15.9889 3.5292,15.0569 2.7232,14.6849 L2.6982,12.4559 L4.8922,9.3569 L12.2012,19.7369 L4.5442,19.7369 C2.6722,19.7369 1.1482,21.2649 1.1482,23.1419 C1.1482,25.0189 2.6722,26.5459 4.5442,26.5459 L4.6992,26.5459 C4.8032,28.4129 6.3502,29.8999 8.2392,29.8999 C10.1272,29.8999 11.6752,28.4129 11.7782,26.5459 L12.5382,26.5459 C12.6412,28.4129 14.1902,29.8999 16.0782,29.8999 C17.9992,29.8999 19.5172,28.4419 19.6182,26.5459 L25.1192,26.5459 C25.2222,28.4129 26.7712,29.8999 28.6592,29.8999 C30.5802,29.8999 32.0992,28.4419 32.1992,26.5459 C34.0442,26.5459 35.5002,25.0859 35.5002,23.2919 L35.5002,18.8859 C35.4242,18.6149 35.3562,18.4889 35.2772,18.4089 Z"/>
</svg>
