<svg xmlns="http://www.w3.org/2000/svg" width="75" height="35" viewBox="0 0 75 35">
  <g fill="none" fill-rule="evenodd" transform="translate(0 1)">
    <polygon fill="#D8232A" points="5.743 33 68.743 33 68.743 25 5.743 25"/>
    <polygon fill="#D8232A" points="5.743 8 68.743 8 68.743 0 5.743 0"/>
    <g fill="#1A1919" transform="translate(0 11)">
      <path d="M3.35777228 2.91093338L.736336634 2.91093338C.191732673 2.91093338 0 2.54517081 0 2.06221072 0 1.57925063.191732673 1.19872767.736336634 1.19872767L7.89356436 1.19872767C8.42346535 1.19872767 8.62960396 1.57925063 8.62960396 2.06221072 8.62960396 2.54517081 8.42346535 2.91093338 7.89356436 2.91093338L5.27212871 2.91093338 5.27212871 10.0534881C5.27212871 10.6096597 4.83014851 10.8289992 4.3149505 10.8289992 3.79945545 10.8289992 3.35777228 10.6096597 3.35777228 10.0534881L3.35777228 2.91093338M11.5739109 9.23384338C12.8989604 9.23384338 13.2965347 9.07295508 13.2965347 7.17004508 13.2965347 5.20883152 12.8989604 5.01871765 11.5739109 5.01871765 10.2188614 5.01871765 9.86554455 5.20883152 9.86554455 7.17004508 9.86554455 9.07295508 10.2188614 9.23384338 11.5739109 9.23384338zM11.5739109 3.39389347C14.209604 3.39389347 15.1226733 4.11124862 15.1226733 7.19956587 15.1226733 10.3022007 14.209604 10.8583723 11.5739109 10.8583723 8.90821782 10.8583723 8.03940594 10.3022007 8.03940594 7.19956587 8.03940594 4.11124862 8.90821782 3.39389347 11.5739109 3.39389347zM19.7747525 9.23384338C20.2167327 9.23384338 20.4671287 9.19000501 20.7761881 9.19000501 21.2624257 9.19000501 21.4684158 9.43857005 21.4684158 9.90706495 21.4684158 10.5804341 21.1446535 10.8583723 19.495099 10.8583723 18.0959406 10.8583723 17.4041584 10.4778494 17.4041584 8.83870763L17.4041584 5.20883152 16.6823762 5.20883152C16.1667327 5.20883152 15.9754455 4.85753415 15.9754455 4.37457405 15.9754455 3.90622675 16.1667327 3.54046418 16.6823762 3.54046418L17.4041584 3.54046418 17.4041584 2.38413491C17.4041584 1.85718885 17.8162871 1.63770179 18.3023762 1.63770179 18.8175743 1.63770179 19.2301485 1.85718885 19.2301485 2.38413491L19.2301485 3.54046418 20.7467822 3.54046418C21.2624257 3.54046418 21.409604 3.90622675 21.409604 4.37457405 21.409604 4.85753415 21.2624257 5.20883152 20.7467822 5.20883152L19.2301485 5.20883152 19.2301485 8.69228452C19.2301485 9.10218066 19.480396 9.23384338 19.7747525 9.23384338M27.0193069 7.72636433L25.2374257 7.72636433C24.2212871 7.72636433 24.0298515 7.90186542 24.0298515 8.47279746 24.0298515 9.08756787 24.2506931 9.26306896 25.4876733 9.26306896 26.709802 9.26306896 27.0193069 9.11679345 27.0193069 8.70689731L27.0193069 7.72636433zM22.6602475 4.40394724C22.6602475 3.74533845 23.2198515 3.39389347 25.4287129 3.39389347 28.1530693 3.39389347 28.8305941 3.8184024 28.8305941 5.80913675L28.8305941 8.57508699C28.8305941 10.5072226 27.9617822 10.8583723 25.4287129 10.8583723 22.8957921 10.8583723 22.2479703 10.5072226 22.2479703 8.53124862 22.2479703 6.90671965 22.645396 6.24796327 25.3403465 6.24796327L27.0193069 6.24796327 27.0193069 5.95541226C27.0193069 5.2380571 26.7392079 5.06255602 25.6348515 5.06255602 24.5303465 5.06255602 23.8675248 5.2380571 23.4406931 5.2380571 22.8662376 5.2380571 22.6602475 4.91628051 22.6602475 4.40394724zM32.7166337 10.0681009C32.7166337 10.6096597 32.304505 10.8289992 31.7888614 10.8289992 31.2883663 10.8289992 30.8610891 10.6096597 30.8610891 10.0681009L30.8610891 1.68168776C30.8610891 1.1401289 31.2883663.905881449 31.7888614.905881449 32.304505.905881449 32.7166337 1.1401289 32.7166337 1.68168776L32.7166337 10.0681009M41.0217327 6.61387343L41.0217327 10.0681009C41.0217327 10.6096597 40.6093069 10.8289992 40.1086634 10.8289992 39.5931683 10.8289992 39.1957426 10.6096597 39.1957426 10.0681009L39.1957426 6.48221072C39.1957426 5.2528175 38.9307921 5.06255602 37.884802 5.06255602 36.7510396 5.06255602 36.6037129 5.28204308 36.6037129 6.61387343L36.6037129 10.0681009C36.6037129 10.6096597 36.1915842 10.8289992 35.6906436 10.8289992 35.1754455 10.8289992 34.7775743 10.6096597 34.7775743 10.0681009L34.7775743 6.48221072C34.7775743 3.75995124 35.5434653 3.39389347 37.884802 3.39389347 38.9009406 3.39389347 39.6225743 3.5112386 40.0939604 3.78917682 40.5503465 3.5112386 41.2572772 3.39389347 42.2881188 3.39389347 44.6150495 3.39389347 45.424604 3.75995124 45.424604 6.48221072L45.424604 10.0681009C45.424604 10.6096597 44.9977723 10.8289992 44.4969802 10.8289992 43.9964851 10.8289992 43.5986139 10.6096597 43.5986139 10.0681009L43.5986139 6.61387343C43.5986139 5.28204308 43.4220297 5.06255602 42.2881188 5.06255602 41.1542079 5.06255602 41.0217327 5.28204308 41.0217327 6.61387343M50.7239109 9.23384338C52.0492574 9.23384338 52.4466832 9.07295508 52.4466832 7.17004508 52.4466832 5.20883152 52.0492574 5.01871765 50.7239109 5.01871765 49.3690099 5.01871765 49.0156931 5.20883152 49.0156931 7.17004508 49.0156931 9.07295508 49.3690099 9.23384338 50.7239109 9.23384338zM50.7239109 3.39389347C53.3597525 3.39389347 54.2728218 4.11124862 54.2728218 7.19956587 54.2728218 10.3022007 53.3597525 10.8583723 50.7239109 10.8583723 48.0585149 10.8583723 47.1895545 10.3022007 47.1895545 7.19956587 47.1895545 4.11124862 48.0585149 3.39389347 50.7239109 3.39389347zM59.6024257 5.01871765C58.3508911 5.01871765 57.8499505 5.15038036 57.8499505 7.11159392 57.8499505 9.01420872 58.2622277 9.23384338 59.6024257 9.23384338 60.8689604 9.23384338 61.2813861 9.05804709 61.2813861 7.11159392 61.2813861 5.28204308 60.7804455 5.01871765 59.6024257 5.01871765zM56.0091089 1.65246218C56.0091089 1.12551611 56.4510891.905881449 56.9517327.905881449 57.4525248.905881449 57.8646535 1.12551611 57.8646535 1.65246218L57.8646535 3.62828853C58.2622277 3.5112386 58.8366832 3.39389347 59.6172772 3.39389347 62.2238614 3.39389347 63.1075248 4.05264986 63.1075248 7.11159392 63.1075248 10.2143764 62.2532673 10.8583723 59.6024257 10.8583723 56.9662871 10.8583723 56.0091089 10.3314263 56.0091089 7.1408195L56.0091089 1.65246218zM66.6986139 10.0681009C66.6986139 10.6096597 66.2864851 10.8289992 65.7856931 10.8289992 65.285198 10.8289992 64.8726238 10.6096597 64.8726238 10.0681009L64.8726238 4.19892536C64.8726238 3.65751411 65.285198 3.42326666 65.7856931 3.42326666 66.2864851 3.42326666 66.6986139 3.65751411 66.6986139 4.19892536L66.6986139 10.0681009zM65.7856931.759605944C66.3601485.759605944 66.8312376 1.22795325 66.8312376 1.79873769 66.8312376 2.36952212 66.3601485 2.82325664 65.7856931 2.82325664 65.2112376 2.82325664 64.7695545 2.36952212 64.7695545 1.79873769 64.7695545 1.22795325 65.2112376.759605944 65.7856931.759605944zM70.6152475 10.0681009C70.6152475 10.6096597 70.2029703 10.8289992 69.6874752 10.8289992 69.1868317 10.8289992 68.7595545 10.6096597 68.7595545 10.0681009L68.7595545 1.68168776C68.7595545 1.1401289 69.1868317.905881449 69.6874752.905881449 70.2029703.905881449 70.6152475 1.1401289 70.6152475 1.68168776L70.6152475 10.0681009M74.4727723 7.28724261C74.4433663 7.69713875 74.0753465 7.90186542 73.7217327 7.90186542 73.3684158 7.90186542 73.0293564 7.71175154 72.9999505 7.28724261L72.6320792 1.97423877C72.5878218 1.35961596 73.1771287 1.05215695 73.7658416 1.05215695 74.3255941 1.05215695 74.8850495 1.34500317 74.8409406 1.97423877L74.4727723 7.28724261zM74.855495 9.70219068C74.855495 10.3607995 74.355 10.8289992 73.7217327 10.8289992 73.0739109 10.8289992 72.6025248 10.3607995 72.6025248 9.70219068 72.6025248 9.07295508 73.0739109 8.5604742 73.7217327 8.5604742 74.355 8.5604742 74.855495 9.07295508 74.855495 9.70219068z"/>
    </g>
  </g>
</svg>
