<svg xmlns="http://www.w3.org/2000/svg" width="36" height="36" viewBox="0 0 36 36">
  <path fill="#015" d="M35.2591394,0 C35.0731262,0 34.8912155,0.0719707619 34.7599121,0.215912286 L28.9242044,5.9735733 C28.7783117,6.11751482 28.7196127,6.29046948 28.7196127,6.49198762 L28.7196127,12.2496486 C28.7196127,12.6526848 29.0405769,12.9693562 29.4490764,12.9693562 L30.2076047,12.9693562 L30.2076047,28.0832162 C30.2076047,28.4862525 29.8866407,28.8029238 29.4781412,28.8029238 C29.0696416,28.8029238 28.7486774,28.4862525 28.7486774,28.0832162 L28.7486774,16.5678943 C28.7486774,15.3875738 27.756607,14.4087714 26.5602869,14.4087714 L25.8308234,14.4087714 L25.8308234,3.61315714 C25.8016449,1.62676411 24.1677604,0.0146190466 22.1544412,0.0146190466 L7.56517133,0.0146190466 C5.55185209,0.0146190466 3.91785386,1.62676411 3.91785386,3.61315714 L3.91785386,34.5605848 L1.72946349,34.5605848 C1.32096394,34.5605848 1,34.8772561 1,35.2802924 C1,35.6833286 1.32096394,36 1.72946349,36 L27.9901492,36 C28.3986487,36 28.7196127,35.6833286 28.7196127,35.2802924 C28.7196127,34.8772561 28.3986487,34.5605848 27.9901492,34.5605848 L25.8017587,34.5605848 L25.8017587,15.8481867 L26.5312222,15.8481867 C26.9397217,15.8481867 27.2606857,16.164858 27.2606857,16.5678943 L27.2606857,28.0832162 C27.2606857,29.2635367 28.252756,30.242339 29.4490764,30.242339 C30.6453966,30.242339 31.6374669,29.2635367 31.6374669,28.0832162 L31.6374669,12.9693562 L32.3378657,12.9693562 C32.7463652,12.9693562 33.0673292,12.6526848 33.0673292,12.2496486 L33.0673292,3.90104019 L35.781161,1.22350295 C36.0729463,0.935619905 36.0729463,0.475007 35.781161,0.215912286 C35.6352683,0.0719707619 35.4451526,0 35.2591394,0 Z M7.56517133,1.45403428 L22.1544412,1.45403428 C23.3507613,1.45403428 24.3428317,2.43283665 24.3428317,3.61315714 L24.3428317,34.5605848 L5.37678085,34.5605848 L5.37678085,3.61315714 C5.37678085,2.43283665 6.3688512,1.45403428 7.56517133,1.45403428 Z M9.60766911,3.46921562 C8.41134898,3.46921562 7.41927863,4.44801798 7.41927863,5.62833848 L7.41927863,12.2496486 C7.41927863,13.4299691 8.41134898,14.4087714 9.60766911,14.4087714 L20.1119434,14.4087714 C21.3082636,14.4087714 22.3003339,13.4299691 22.3003339,12.2496486 L22.3003339,5.62833848 C22.3003339,4.44801798 21.3082636,3.46921562 20.1119434,3.46921562 L9.60766911,3.46921562 Z M9.60766911,4.90863086 L20.1119434,4.90863086 C20.520443,4.90863086 20.8414069,5.22530221 20.8414069,5.62833848 L20.8414069,12.2496486 C20.8414069,12.6526848 20.520443,12.9693562 20.1119434,12.9693562 L9.60766911,12.9693562 C9.19916955,12.9693562 8.87820562,12.6526848 8.87820562,12.2496486 L8.87820562,5.62833848 C8.87820562,5.22530221 9.19916955,4.90863086 9.60766911,4.90863086 Z M31.5793374,5.34045543 L31.5793374,11.529941 L30.9080034,11.529941 L30.8789387,11.529941 L30.8498739,11.529941 L30.0913457,11.529941 L30.0913457,6.77987067 L30.1204104,6.77987067 L31.5793374,5.34045543 Z M15.005699,18.4391341 C14.7430921,18.4391341 14.4803715,18.5541748 14.3053002,18.7556929 L14.2762355,18.7843689 L11.7379307,22.1242619 L11.6792316,22.1816137 C11.1831965,22.872533 10.9497681,23.6498173 10.9497681,24.4846781 C10.9497681,26.7013776 12.7589514,28.4863647 15.005699,28.4863647 C17.223268,28.4863647 19.0616301,26.7013776 19.0616301,24.4846781 C19.0616301,23.6786056 18.7991373,22.9013213 18.3031021,22.1816137 L18.2740374,22.152938 L15.7351625,18.7843689 C15.7351625,18.7843689 15.7352765,18.7556929 15.706098,18.7556929 C15.5310268,18.5541748 15.2683058,18.4391341 15.005699,18.4391341 Z M14.9766345,20.2530221 L17.0772615,23.0452629 C17.3982254,23.4770874 17.5736386,23.9950521 17.5736386,24.5420299 C17.5736386,25.9238685 16.406383,27.0756255 14.9766345,27.0756255 C13.5468861,27.0756255 12.3796304,25.9239808 12.3796304,24.5133538 C12.3796304,23.9951644 12.5255231,23.5057632 12.8173085,23.0739386 L12.8463732,23.0452629 L14.9766345,20.2530221 Z"/>
</svg>
