<svg xmlns="http://www.w3.org/2000/svg" width="36" height="36" viewBox="0 0 36 36">
  <path fill="#015" d="M6.48,2 C2.9088,2 0,4.89826087 0,8.45652174 C0,8.85826087 0.3168,9.17391304 0.72,9.17391304 C1.1232,9.17391304 1.44,8.85826087 1.44,8.45652174 C1.44,5.70173913 3.7152,3.43478261 6.48,3.43478261 L29.52,3.43478261 C32.2848,3.43478261 34.56,5.70173913 34.56,8.45652174 C34.56,8.85826087 34.8768,9.17391304 35.28,9.17391304 C35.6832,9.17391304 36,8.85826087 36,8.45652174 C36,4.89826087 33.0912,2 29.52,2 L6.48,2 Z M6.48,4.86956522 C6.0768,4.86956522 5.76,5.18521739 5.76,5.58695652 C5.76,5.98869565 6.0768,6.30434783 6.48,6.30434783 L29.52,6.30434783 C29.9232,6.30434783 30.24,5.98869565 30.24,5.58695652 C30.24,5.18521739 29.9232,4.86956522 29.52,4.86956522 L6.48,4.86956522 Z M6.48,7.73913043 C2.9088,7.73913043 0,10.6373913 0,14.1956522 L0,28.5434783 C0,32.1017391 2.9088,35 6.48,35 L29.52,35 C33.0912,35 36,32.1017391 36,28.5434783 L36,14.1956522 C36,10.6373913 33.0912,7.73913043 29.52,7.73913043 L6.48,7.73913043 Z M6.48,9.17391304 L29.52,9.17391304 C32.2848,9.17391304 34.56,11.4408696 34.56,14.1956522 L34.56,28.5434783 C34.56,31.2982609 32.2848,33.5652174 29.52,33.5652174 L6.48,33.5652174 C3.7152,33.5652174 1.44,31.2982609 1.44,28.5434783 L1.44,14.1956522 C1.44,11.4408696 3.7152,9.17391304 6.48,9.17391304 Z M15.84,13.4782609 C15.4368,13.4782609 15.12,13.793913 15.12,14.1956522 L15.12,18.5 L10.8,18.5 C10.3968,18.5 10.08,18.8156522 10.08,19.2173913 L10.08,23.5217391 C10.08,23.9234783 10.3968,24.2391304 10.8,24.2391304 L15.12,24.2391304 L15.12,28.5434783 C15.12,28.9452174 15.4368,29.2608696 15.84,29.2608696 L20.16,29.2608696 C20.5632,29.2608696 20.88,28.9452174 20.88,28.5434783 L20.88,24.2391304 L25.2,24.2391304 C25.6032,24.2391304 25.92,23.9234783 25.92,23.5217391 L25.92,19.2173913 C25.92,18.8156522 25.6032,18.5 25.2,18.5 L20.88,18.5 L20.88,14.1956522 C20.88,13.793913 20.5632,13.4782609 20.16,13.4782609 L15.84,13.4782609 Z M16.56,14.9130435 L19.44,14.9130435 L19.44,19.2173913 C19.44,19.6191304 19.7568,19.9347826 20.16,19.9347826 L24.48,19.9347826 L24.48,22.8043478 L20.16,22.8043478 C19.7568,22.8043478 19.44,23.12 19.44,23.5217391 L19.44,27.826087 L16.56,27.826087 L16.56,23.5217391 C16.56,23.12 16.2432,22.8043478 15.84,22.8043478 L11.52,22.8043478 L11.52,19.9347826 L15.84,19.9347826 C16.2432,19.9347826 16.56,19.6191304 16.56,19.2173913 L16.56,14.9130435 Z"/>
</svg>
