<svg xmlns="http://www.w3.org/2000/svg" width="36" height="36" viewBox="0 0 36 36">
  <path fill="#015" d="M17.9855185,0 C17.5784523,0 17.1420828,0.201712493 16.8803974,0.547312493 L16.8514346,0.576 L6.70374195,13.968 C6.61651348,14.0256 6.55858825,14.1409126 6.50043593,14.2273126 C4.87217106,16.5601126 4,19.2961126 4,22.1473126 C4,29.7793123 10.2803365,36 17.9855185,36 C25.6907004,36 31.9709238,29.808 32,22.176 C32,19.3248 31.0990927,16.5309751 29.4126755,14.1693751 C29.3835993,14.1117751 29.3544098,14.0542874 29.2962575,13.9966874 L19.1196023,0.576 L19.0906396,0.547312493 C18.799878,0.201712493 18.3925847,0 17.9855185,0 Z M17.9855185,1.46868751 L28.1621739,14.8893751 L28.1911364,14.9186249 C28.2202125,14.9474249 28.2205533,14.9758874 28.2496295,15.0046874 C29.7615894,17.1358874 30.5461921,19.6128 30.5461921,22.176 C30.5171159,29.0016 24.876568,34.56 17.9855185,34.56 C11.0653928,34.56 5.45380792,29.0017123 5.45380792,22.1473126 C5.45380792,19.5841126 6.23852342,17.1357751 7.72140749,15.0333751 L7.80886305,14.9473126 L17.9855185,1.46868751 Z M18.020728,6.74381261 C17.785904,6.73228138 17.5493761,6.82931261 17.4039953,7.02731261 L9.98957493,16.8766874 L9.96061246,16.9053751 C8.91387076,18.4893751 8.36142375,20.2465126 8.36142375,22.1473126 C8.36142375,27.4177126 12.6645815,31.68 17.9855185,31.68 C18.3925847,31.68 18.7124224,31.3632 18.7124224,30.96 C18.7124224,30.5568 18.3925847,30.24 17.9855185,30.24 C13.4787139,30.24 9.81523167,26.6113126 9.81523167,22.1473126 C9.81523167,20.5345126 10.2512604,19.0656 11.1526213,17.712 L18.5670416,7.89131261 C18.7996509,7.57451261 18.7414986,7.11371261 18.4216608,6.88331261 C18.3017217,6.79691261 18.1616223,6.75073123 18.020728,6.74381261 Z"/>
</svg>
