<svg xmlns="http://www.w3.org/2000/svg" width="46" height="46" viewBox="0 0 46 46">
  <path fill="#021154" stroke="#015" stroke-width=".5" d="M24.4765414,8.75573333 C24.4941578,8.66684444 24.5024267,8.57688889 24.5024267,8.48622222 C24.5020672,7.66666667 23.8279705,7 22.999281,7 C22.1709509,7 21.4968542,7.66666667 21.4968542,8.48657778 C21.4968542,8.57688889 21.5051231,8.66684444 21.52238,8.75608889 C13.3476541,9.49991111 7,16.3557333 7,24.5306667 C7,24.9160889 7.26244832,25.2570667 7.63742585,25.3612444 C8.00665109,25.4618667 8.42009707,25.3000889 8.6178321,24.9765333 C9.24986518,23.9425778 10.3546647,23.3249778 11.5748697,23.3249778 C12.7875247,23.3249778 13.8898077,23.9383111 14.5236383,24.9637333 C14.6451555,25.1607111 14.8457667,25.3032889 15.0729822,25.3552 L15.1420097,25.3704889 C15.5026065,25.4533333 15.8916052,25.2890667 16.0832285,24.9765333 C16.7138235,23.9425778 17.8189826,23.3249778 19.039547,23.3249778 C20.2525616,23.3249778 21.354485,23.9376 21.9883157,24.9637333 C22.0267841,25.0263111 22.073162,25.0824889 22.1274492,25.1336889 L22.1274492,34.3144889 C22.1274492,34.3429333 22.1296063,34.3713778 22.133561,34.3991111 C22.1299658,34.4254222 22.1278087,34.4520889 22.1278087,34.4801778 C22.1278087,36.9722667 24.1767032,39 26.695488,39 C29.2153514,39 31.2646054,36.9722667 31.2646054,34.4801778 C31.2646054,34.0044444 30.8734496,33.6179556 30.3931332,33.6179556 C29.9120978,33.6179556 29.5209419,34.0044444 29.5209419,34.4801778 C29.5209419,36.0215111 28.2536401,37.2755556 26.695488,37.2755556 C25.1384145,37.2755556 23.8714722,36.0215111 23.8714722,34.4801778 C23.8714722,34.4520889 23.8693151,34.4247111 23.8653604,34.3955556 C23.8689556,34.3696 23.8711127,34.3425778 23.8711127,34.3144889 L23.8711127,25.1486222 C23.926119,25.0970667 23.9735754,25.0394667 24.0127629,24.9765333 C24.6451555,23.9425778 25.7499551,23.3249778 26.9705195,23.3249778 C28.1831745,23.3249778 29.285098,23.9376 29.9185691,24.9637333 C30.0400863,25.1603556 30.2406975,25.3025778 30.4664749,25.3544889 L30.5333453,25.3694222 C30.8921445,25.4551111 31.285098,25.2908444 31.4777997,24.9765333 C32.1098328,23.9425778 33.2149919,23.3249778 34.4348373,23.3249778 C35.6482114,23.3249778 36.7497753,23.9383111 37.3839655,24.9637333 C37.5842171,25.2872889 37.9911918,25.4448 38.3636527,25.3409778 C38.7379112,25.2368 39,24.8940444 39,24.5072 C38.999281,16.3450667 32.6523459,9.49991111 24.4765414,8.75573333 Z M34.4344778,21.6005333 C33.0154593,21.6005333 31.6726586,22.1655111 30.7012403,23.1610667 C29.729103,22.1655111 28.3877404,21.6005333 26.9698005,21.6005333 C25.4138055,21.6005333 23.9893942,22.2576 23.0039547,23.4163556 C22.0188747,22.2579556 20.5944634,21.6005333 19.0399065,21.6005333 C17.630595,21.6005333 16.2895919,22.1665778 15.3099047,23.1639111 C14.3374079,22.1662222 12.9946072,21.6005333 11.5748697,21.6005333 C10.6189107,21.6005333 9.71112709,21.8465778 8.91515369,22.3180444 C9.99011325,15.4835556 15.9307927,10.4083556 22.999281,10.4083556 C30.0612979,10.4083556 36.0016178,15.4810667 37.0819702,22.312 C36.2877944,21.8448 35.384325,21.6005333 34.4344778,21.6005333 Z" transform="matrix(-1 0 0 1 46 0)"/>
</svg>
